<?xml version="1.0" encoding="UTF-8"?>
<svg id="Capa_1" data-name="Capa 1" xmlns="http://www.w3.org/2000/svg" xmlns:xlink="http://www.w3.org/1999/xlink" viewBox="0 0 314 85">
  <defs>
    <style>
      .cls-1 {
        fill: #55b848;
      }

      .cls-2 {
        fill: #9eda4b;
      }

      .cls-3 {
        fill: #9cd94b;
      }

      .cls-4 {
        fill: #33a947;
      }

      .cls-5 {
        fill: #faaf3b;
      }

      .cls-6 {
        fill: #23a146;
      }

      .cls-7 {
        fill: #6fc449;
      }

      .cls-8 {
        fill: #96d64a;
      }

      .cls-9 {
        fill: #52b748;
      }

      .cls-10 {
        fill: #7dca4a;
      }

      .cls-11, .cls-12 {
        fill: #fff;
      }

      .cls-13 {
        fill: #3fae47;
      }

      .cls-14 {
        fill: #7ac949;
      }

      .cls-15 {
        fill: #46b148;
      }

      .cls-16 {
        fill: #91d44a;
      }

      .cls-17 {
        fill: #53b748;
      }

      .cls-18 {
        fill: #139a46;
      }

      .cls-19 {
        fill: #40af47;
      }

      .cls-20 {
        fill: #1c9e46;
      }

      .cls-21 {
        fill: #129946;
      }

      .cls-22 {
        fill: #99d74b;
      }

      .cls-23 {
        fill: #5bbb48;
      }

      .cls-24 {
        fill: #70c449;
      }

      .cls-12 {
        font-family: Roboto-Medium, Roboto;
        font-size: 24px;
        font-weight: 500;
      }

      .cls-25 {
        fill: #89d04a;
      }

      .cls-26 {
        fill: #77c849;
      }

      .cls-27 {
        fill: #9fda4b;
      }

      .cls-28 {
        fill: #2fa747;
      }

      .cls-29 {
        fill: #0c9645;
      }

      .cls-30 {
        fill: #98d74b;
      }

      .cls-31 {
        fill: #60bd48;
      }

      .cls-32 {
        fill: #1d9e46;
      }

      .cls-33 {
        fill: #0a9645;
      }

      .cls-34 {
        fill: #4fb548;
      }

      .cls-35 {
        fill: #8bd14a;
      }

      .cls-36 {
        fill: #66c049;
      }

      .cls-37 {
        fill: #94d54a;
      }

      .cls-38 {
        fill: #2aa447;
      }

      .cls-39 {
        fill: #93d54a;
      }

      .cls-40 {
        fill: #78c849;
      }

      .cls-41 {
        fill: #8dd24a;
      }

      .cls-42 {
        fill: #64bf49;
      }

      .cls-43 {
        fill: #079445;
      }

      .cls-44 {
        fill: #87cf4a;
      }

      .cls-45 {
        fill: #6ec449;
      }

      .cls-46 {
        fill: #50b648;
      }

      .cls-47 {
        fill: #34a947;
      }

      .cls-48 {
        fill: #9dd94b;
      }

      .cls-49 {
        fill: #099545;
      }

      .cls-50 {
        fill: #71c549;
      }

      .cls-51 {
        fill: #95d64a;
      }

      .cls-52 {
        fill: #92d44a;
      }

      .cls-53 {
        fill: #68c149;
      }

      .cls-54 {
        fill: #2ba547;
      }

      .cls-55 {
        fill: #97d64a;
      }

      .cls-56 {
        fill: #24a246;
      }

      .cls-57 {
        fill: #56b948;
      }

      .cls-58 {
        fill: #88d04a;
      }

      .cls-59 {
        fill: #79c949;
      }

      .cls-60 {
        fill: #109846;
      }

      .cls-61 {
        fill: #97d74b;
      }

      .cls-62 {
        fill: #37aa47;
      }

      .cls-63 {
        fill: #21a046;
      }

      .cls-64 {
        fill: #5dbc48;
      }

      .cls-65 {
        fill: #69c249;
      }

      .cls-66 {
        fill: #3ead47;
      }

      .cls-67 {
        fill: #65c049;
      }

      .cls-68 {
        fill: #82cd4a;
      }

      .cls-69 {
        fill: #81cd4a;
      }

      .cls-70 {
        fill: #4bb448;
      }

      .cls-71 {
        fill: #74c649;
      }

      .cls-72 {
        fill: #20a046;
      }

      .cls-73 {
        fill: #38ab47;
      }

      .cls-74 {
        fill: #7fcc4a;
      }

      .cls-75 {
        fill: #3bac47;
      }

      .cls-76 {
        fill: #9bd84b;
      }

      .cls-77 {
        fill: #179c46;
      }

      .cls-78 {
        fill: #1a9d46;
      }

      .cls-79 {
        fill: #72c549;
      }

      .cls-80 {
        fill: #41af47;
      }

      .cls-81 {
        fill: #3aac47;
      }

      .cls-82 {
        fill: #7bca49;
      }

      .cls-83 {
        fill: #159a46;
      }

      .cls-84 {
        fill: #5cbb48;
      }

      .cls-85 {
        fill: #5ebc48;
      }

      .cls-86 {
        fill: #83cd4a;
      }

      .cls-87 {
        fill: #75c749;
      }

      .cls-88 {
        fill: #85ce4a;
      }

      .cls-89 {
        fill: #57b948;
      }

      .cls-90 {
        fill: #30a747;
      }

      .cls-91 {
        fill: #84ce4a;
      }

      .cls-92 {
        fill: #80cc4a;
      }

      .cls-93 {
        fill: #26a246;
      }

      .cls-94 {
        fill: #73c649;
      }

      .cls-95 {
        fill: #4db448;
      }

      .cls-96 {
        fill: #62be49;
      }

      .cls-97 {
        fill: #169b46;
      }

      .cls-98 {
        clip-path: url(#clippath);
      }

      .cls-99 {
        fill: #7ecb4a;
      }

      .cls-100 {
        fill: #61be49;
      }

      .cls-101 {
        fill: #7cca49;
      }

      .cls-102 {
        fill: #a0db4b;
      }

      .cls-103 {
        fill: #95d54a;
      }

      .cls-104 {
        fill: #28a446;
      }

      .cls-105 {
        fill: #32a847;
      }

      .cls-106 {
        fill: #44b047;
      }

      .cls-107 {
        fill: #54b848;
      }

      .cls-108 {
        fill: #63bf49;
      }

      .cls-109 {
        fill: #6ac249;
      }

      .cls-110 {
        fill: none;
      }

      .cls-111 {
        fill: #43b047;
      }

      .cls-112 {
        fill: #90d34a;
      }

      .cls-113 {
        fill: #59ba48;
      }

      .cls-114 {
        fill: #8fd34a;
      }

      .cls-115 {
        fill: #39b44a;
        font-family: Roboto-Black, Roboto;
        font-size: 60px;
        font-weight: 800;
        stroke: #000;
        stroke-miterlimit: 10;
      }

      .cls-116 {
        fill: #6dc349;
      }

      .cls-117 {
        fill: #99d84b;
      }

      .cls-118 {
        fill: #3cad47;
      }

      .cls-119 {
        fill: #069445;
      }

      .cls-120 {
        fill: #8ed24a;
      }

      .cls-121 {
        fill: #2ea647;
      }

      .cls-122 {
        fill: #8cd24a;
      }

      .cls-123 {
        letter-spacing: -.01em;
      }

      .cls-124 {
        fill: #27a346;
      }

      .cls-125 {
        fill: #199c46;
      }

      .cls-126 {
        fill: #0f9846;
      }

      .cls-127 {
        fill: #8ad14a;
      }

      .cls-128 {
        fill: #4eb548;
      }

      .cls-129 {
        fill: #67c149;
      }

      .cls-130 {
        fill: #48b248;
      }

      .cls-131 {
        fill: #6cc349;
      }

      .cls-132 {
        fill: #36aa47;
      }

      .cls-133 {
        fill: #9ad84b;
      }

      .cls-134 {
        fill: #49b348;
      }

      .cls-135 {
        fill: #2ca547;
      }

      .cls-136 {
        fill: #5aba48;
      }

      .cls-137 {
        fill: #a1db4b;
      }

      .cls-138 {
        fill: #86cf4a;
      }

      .cls-139 {
        fill: #049345;
      }

      .cls-140 {
        fill: #1f9f46;
      }

      .cls-141 {
        fill: #76c749;
      }

      .cls-142 {
        fill: #0d9745;
      }

      .cls-143 {
        fill: #4ab348;
      }

      .cls-144 {
        fill: #45b148;
      }

      .cls-145 {
        fill: #8cd14a;
      }
    </style>
    <clipPath id="clippath">
      <path class="cls-110" d="m60.71,38.66c0-15.22-12.34-27.55-27.55-27.55S5.6,23.44,5.6,38.66c0,.42.01.83.03,1.25-.02.17-.03.34-.03.52v27.55c0,2.54,2.06,4.59,4.59,4.59s4.59-2.06,4.59-4.59v-8.79c1.8,1.61,3.82,2.99,6.01,4.09v13.18c0,2.54,2.06,4.59,4.59,4.59s4.59-2.06,4.59-4.59v-10.43c1.04.12,2.1.19,3.18.19s2.14-.07,3.18-.19v10.43c0,2.54,2.06,4.59,4.59,4.59s4.59-2.06,4.59-4.59v-13.18c2.18-1.1,4.2-2.48,6.01-4.09v8.79c0,2.54,2.06,4.59,4.59,4.59s4.59-2.06,4.59-4.59v-27.55c0-.18-.01-.35-.03-.52.02-.41.03-.83.03-1.25Z"/>
    </clipPath>
  </defs>
  <rect class="cls-5" x="87.73" y="57.01" width="201.5" height="23"/>
  <g>
    <g>
      <g class="cls-98">
        <rect class="cls-137" x="5.6" y="11.1" width="55.11" height=".07"/>
        <rect class="cls-102" x="5.6" y="11.17" width="55.11" height=".48"/>
        <rect class="cls-102" x="5.6" y="11.65" width="55.11" height=".48"/>
        <rect class="cls-27" x="5.6" y="12.12" width="55.11" height=".48"/>
        <rect class="cls-27" x="5.6" y="12.6" width="55.11" height=".48"/>
        <rect class="cls-2" x="5.6" y="13.08" width="55.11" height=".48"/>
        <rect class="cls-2" x="5.6" y="13.55" width="55.11" height=".48"/>
        <rect class="cls-48" x="5.6" y="14.03" width="55.11" height=".48"/>
        <rect class="cls-48" x="5.6" y="14.51" width="55.11" height=".48"/>
        <rect class="cls-3" x="5.6" y="14.98" width="55.11" height=".48"/>
        <rect class="cls-3" x="5.6" y="15.46" width="55.11" height=".48"/>
        <rect class="cls-76" x="5.6" y="15.94" width="55.11" height=".48"/>
        <rect class="cls-76" x="5.6" y="16.41" width="55.11" height=".48"/>
        <rect class="cls-133" x="5.6" y="16.89" width="55.11" height=".48"/>
        <rect class="cls-117" x="5.6" y="17.37" width="55.11" height=".48"/>
        <rect class="cls-22" x="5.6" y="17.84" width="55.11" height=".48"/>
        <rect class="cls-30" x="5.6" y="18.32" width="55.11" height=".48"/>
        <rect class="cls-61" x="5.6" y="18.8" width="55.11" height=".48"/>
        <rect class="cls-55" x="5.6" y="19.27" width="55.11" height=".48"/>
        <rect class="cls-8" x="5.6" y="19.75" width="55.11" height=".48"/>
        <rect class="cls-51" x="5.6" y="20.23" width="55.11" height=".48"/>
        <rect class="cls-103" x="5.6" y="20.7" width="55.11" height=".48"/>
        <rect class="cls-37" x="5.6" y="21.18" width="55.11" height=".48"/>
        <rect class="cls-39" x="5.6" y="21.66" width="55.11" height=".48"/>
        <rect class="cls-52" x="5.6" y="22.13" width="55.11" height=".48"/>
        <rect class="cls-52" x="5.6" y="22.61" width="55.11" height=".48"/>
        <rect class="cls-16" x="5.6" y="23.09" width="55.11" height=".48"/>
        <rect class="cls-112" x="5.6" y="23.56" width="55.11" height=".48"/>
        <rect class="cls-114" x="5.6" y="24.04" width="55.11" height=".48"/>
        <rect class="cls-114" x="5.6" y="24.52" width="55.11" height=".48"/>
        <rect class="cls-120" x="5.6" y="24.99" width="55.11" height=".48"/>
        <rect class="cls-41" x="5.6" y="25.47" width="55.11" height=".48"/>
        <rect class="cls-122" x="5.6" y="25.95" width="55.11" height=".48"/>
        <rect class="cls-145" x="5.6" y="26.42" width="55.11" height=".48"/>
        <rect class="cls-35" x="5.6" y="26.9" width="55.11" height=".48"/>
        <rect class="cls-127" x="5.6" y="27.38" width="55.11" height=".48"/>
        <rect class="cls-25" x="5.6" y="27.85" width="55.11" height=".48"/>
        <rect class="cls-58" x="5.6" y="28.33" width="55.11" height=".48"/>
        <rect class="cls-44" x="5.6" y="28.81" width="55.11" height=".48"/>
        <rect class="cls-44" x="5.6" y="29.28" width="55.11" height=".48"/>
        <rect class="cls-138" x="5.6" y="29.76" width="55.11" height=".48"/>
        <rect class="cls-88" x="5.6" y="30.24" width="55.11" height=".48"/>
        <rect class="cls-91" x="5.6" y="30.71" width="55.11" height=".48"/>
        <rect class="cls-86" x="5.6" y="31.19" width="55.11" height=".48"/>
        <rect class="cls-68" x="5.6" y="31.67" width="55.11" height=".48"/>
        <rect class="cls-69" x="5.6" y="32.14" width="55.11" height=".48"/>
        <rect class="cls-92" x="5.6" y="32.62" width="55.11" height=".48"/>
        <rect class="cls-74" x="5.6" y="33.09" width="55.11" height=".48"/>
        <rect class="cls-99" x="5.6" y="33.57" width="55.11" height=".48"/>
        <rect class="cls-99" x="5.6" y="34.05" width="55.11" height=".48"/>
        <rect class="cls-10" x="5.6" y="34.52" width="55.11" height=".48"/>
        <rect class="cls-101" x="5.6" y="35" width="55.11" height=".48"/>
        <rect class="cls-82" x="5.6" y="35.48" width="55.11" height=".48"/>
        <rect class="cls-14" x="5.6" y="35.95" width="55.11" height=".48"/>
        <rect class="cls-59" x="5.6" y="36.43" width="55.11" height=".48"/>
        <rect class="cls-40" x="5.6" y="36.91" width="55.11" height=".48"/>
        <rect class="cls-26" x="5.6" y="37.38" width="55.11" height=".48"/>
        <rect class="cls-141" x="5.6" y="37.86" width="55.11" height=".48"/>
        <rect class="cls-87" x="5.6" y="38.34" width="55.11" height=".48"/>
        <rect class="cls-71" x="5.6" y="38.81" width="55.11" height=".48"/>
        <rect class="cls-94" x="5.6" y="39.29" width="55.11" height=".48"/>
        <rect class="cls-79" x="5.6" y="39.77" width="55.11" height=".48"/>
        <rect class="cls-50" x="5.6" y="40.24" width="55.11" height=".48"/>
        <rect class="cls-24" x="5.6" y="40.72" width="55.11" height=".48"/>
        <rect class="cls-7" x="5.6" y="41.2" width="55.11" height=".48"/>
        <rect class="cls-45" x="5.6" y="41.67" width="55.11" height=".48"/>
        <rect class="cls-116" x="5.6" y="42.15" width="55.11" height=".48"/>
        <rect class="cls-131" x="5.6" y="42.63" width="55.11" height=".48"/>
        <rect class="cls-109" x="5.6" y="43.1" width="55.11" height=".48"/>
        <rect class="cls-65" x="5.6" y="43.58" width="55.11" height=".48"/>
        <rect class="cls-53" x="5.6" y="44.06" width="55.11" height=".48"/>
        <rect class="cls-129" x="5.6" y="44.53" width="55.11" height=".48"/>
        <rect class="cls-36" x="5.6" y="45.01" width="55.11" height=".48"/>
        <rect class="cls-67" x="5.6" y="45.49" width="55.11" height=".48"/>
        <rect class="cls-42" x="5.6" y="45.96" width="55.11" height=".48"/>
        <rect class="cls-108" x="5.6" y="46.44" width="55.11" height=".48"/>
        <rect class="cls-96" x="5.6" y="46.92" width="55.11" height=".48"/>
        <rect class="cls-100" x="5.6" y="47.39" width="55.11" height=".48"/>
        <rect class="cls-31" x="5.6" y="47.87" width="55.11" height=".48"/>
        <rect class="cls-85" x="5.6" y="48.35" width="55.11" height=".48"/>
        <rect class="cls-64" x="5.6" y="48.82" width="55.11" height=".48"/>
        <rect class="cls-84" x="5.6" y="49.3" width="55.11" height=".48"/>
        <rect class="cls-23" x="5.6" y="49.78" width="55.11" height=".48"/>
        <rect class="cls-136" x="5.6" y="50.25" width="55.11" height=".48"/>
        <rect class="cls-113" x="5.6" y="50.73" width="55.11" height=".48"/>
        <rect class="cls-89" x="5.6" y="51.21" width="55.11" height=".48"/>
        <rect class="cls-57" x="5.6" y="51.68" width="55.11" height=".48"/>
        <rect class="cls-1" x="5.6" y="52.16" width="55.11" height=".48"/>
        <rect class="cls-107" x="5.6" y="52.64" width="55.11" height=".48"/>
        <rect class="cls-17" x="5.6" y="53.11" width="55.11" height=".48"/>
        <rect class="cls-9" x="5.6" y="53.59" width="55.11" height=".48"/>
        <rect class="cls-46" x="5.6" y="54.07" width="55.11" height=".48"/>
        <rect class="cls-34" x="5.6" y="54.54" width="55.11" height=".48"/>
        <rect class="cls-128" x="5.6" y="55.02" width="55.11" height=".48"/>
        <rect class="cls-95" x="5.6" y="55.5" width="55.11" height=".48"/>
        <rect class="cls-70" x="5.6" y="55.97" width="55.11" height=".48"/>
        <rect class="cls-143" x="5.6" y="56.45" width="55.11" height=".48"/>
        <rect class="cls-134" x="5.6" y="56.92" width="55.11" height=".48"/>
        <rect class="cls-130" x="5.6" y="57.4" width="55.11" height=".48"/>
        <rect class="cls-15" x="5.6" y="57.88" width="55.11" height=".48"/>
        <rect class="cls-144" x="5.6" y="58.35" width="55.11" height=".48"/>
        <rect class="cls-106" x="5.6" y="58.83" width="55.11" height=".48"/>
        <rect class="cls-111" x="5.6" y="59.31" width="55.11" height=".48"/>
        <rect class="cls-80" x="5.6" y="59.78" width="55.11" height=".48"/>
        <rect class="cls-19" x="5.6" y="60.26" width="55.11" height=".48"/>
        <rect class="cls-13" x="5.6" y="60.74" width="55.11" height=".48"/>
        <rect class="cls-66" x="5.6" y="61.21" width="55.11" height=".48"/>
        <rect class="cls-118" x="5.6" y="61.69" width="55.11" height=".48"/>
        <rect class="cls-75" x="5.6" y="62.17" width="55.11" height=".48"/>
        <rect class="cls-81" x="5.6" y="62.64" width="55.11" height=".48"/>
        <rect class="cls-73" x="5.6" y="63.12" width="55.11" height=".48"/>
        <rect class="cls-62" x="5.6" y="63.6" width="55.11" height=".48"/>
        <rect class="cls-132" x="5.6" y="64.07" width="55.11" height=".48"/>
        <rect class="cls-47" x="5.6" y="64.55" width="55.11" height=".48"/>
        <rect class="cls-4" x="5.6" y="65.03" width="55.11" height=".48"/>
        <rect class="cls-105" x="5.6" y="65.5" width="55.11" height=".48"/>
        <rect class="cls-90" x="5.6" y="65.98" width="55.11" height=".48"/>
        <rect class="cls-28" x="5.6" y="66.46" width="55.11" height=".48"/>
        <rect class="cls-121" x="5.6" y="66.93" width="55.11" height=".48"/>
        <rect class="cls-135" x="5.6" y="67.41" width="55.11" height=".48"/>
        <rect class="cls-54" x="5.6" y="67.89" width="55.11" height=".48"/>
        <rect class="cls-38" x="5.6" y="68.36" width="55.11" height=".48"/>
        <rect class="cls-104" x="5.6" y="68.84" width="55.11" height=".48"/>
        <rect class="cls-124" x="5.6" y="69.32" width="55.11" height=".48"/>
        <rect class="cls-93" x="5.6" y="69.79" width="55.11" height=".48"/>
        <rect class="cls-56" x="5.6" y="70.27" width="55.11" height=".48"/>
        <rect class="cls-6" x="5.6" y="70.75" width="55.11" height=".48"/>
        <rect class="cls-63" x="5.6" y="71.22" width="55.11" height=".48"/>
        <rect class="cls-72" x="5.6" y="71.7" width="55.11" height=".48"/>
        <rect class="cls-140" x="5.6" y="72.18" width="55.11" height=".48"/>
        <rect class="cls-32" x="5.6" y="72.65" width="55.11" height=".48"/>
        <rect class="cls-20" x="5.6" y="73.13" width="55.11" height=".48"/>
        <rect class="cls-78" x="5.6" y="73.61" width="55.11" height=".48"/>
        <rect class="cls-125" x="5.6" y="74.08" width="55.11" height=".48"/>
        <rect class="cls-77" x="5.6" y="74.56" width="55.11" height=".48"/>
        <rect class="cls-97" x="5.6" y="75.04" width="55.11" height=".48"/>
        <rect class="cls-83" x="5.6" y="75.51" width="55.11" height=".48"/>
        <rect class="cls-18" x="5.6" y="75.99" width="55.11" height=".48"/>
        <rect class="cls-21" x="5.6" y="76.47" width="55.11" height=".48"/>
        <rect class="cls-60" x="5.6" y="76.94" width="55.11" height=".48"/>
        <rect class="cls-126" x="5.6" y="77.42" width="55.11" height=".48"/>
        <rect class="cls-142" x="5.6" y="77.9" width="55.11" height=".48"/>
        <rect class="cls-29" x="5.6" y="78.37" width="55.11" height=".48"/>
        <rect class="cls-33" x="5.6" y="78.85" width="55.11" height=".48"/>
        <rect class="cls-49" x="5.6" y="79.33" width="55.11" height=".48"/>
        <rect class="cls-43" x="5.6" y="79.8" width="55.11" height=".48"/>
        <rect class="cls-119" x="5.6" y="80.28" width="55.11" height=".48"/>
        <rect class="cls-139" x="5.6" y="80.75" width="55.11" height=".29"/>
      </g>
      <path d="m40.93,82.17c-3.15,0-5.72-2.56-5.72-5.72v-9.2c-1.4.1-2.71.1-4.11,0v9.2c0,3.15-2.56,5.72-5.72,5.72s-5.72-2.56-5.72-5.72v-12.49c-1.31-.7-2.57-1.5-3.76-2.4v6.41c0,3.15-2.56,5.72-5.72,5.72s-5.72-2.56-5.72-5.72v-27.55c0-.19.01-.37.03-.56-.02-.4-.03-.8-.03-1.21,0-15.81,12.87-28.68,28.68-28.68s28.68,12.87,28.68,28.68c0,.41-.01.81-.03,1.21.02.18.03.37.03.56v27.55c0,3.15-2.56,5.72-5.72,5.72s-5.72-2.56-5.72-5.72v-6.41c-1.19.89-2.44,1.69-3.76,2.4v12.49c0,3.15-2.56,5.72-5.72,5.72Zm-3.47-17.41v11.69c0,1.91,1.56,3.47,3.47,3.47s3.47-1.56,3.47-3.47v-13.87l.62-.31c2.09-1.05,4.03-2.37,5.76-3.92l1.87-1.68v11.3c0,1.91,1.56,3.47,3.47,3.47s3.47-1.56,3.47-3.47v-27.55c0-.13,0-.27-.02-.4v-.09s0-.09,0-.09c.02-.4.03-.79.03-1.2,0-14.57-11.86-26.43-26.43-26.43S6.73,24.08,6.73,38.66c0,.4.01.8.03,1.19v.09s0,.09,0,.09c-.02.13-.02.26-.02.39v27.55c0,1.91,1.56,3.47,3.47,3.47s3.47-1.56,3.47-3.47v-11.3l1.87,1.68c1.73,1.55,3.67,2.87,5.76,3.92l.62.31v13.87c0,1.91,1.56,3.47,3.47,3.47s3.47-1.56,3.47-3.47v-11.69l1.25.14c2.08.24,4.02.24,6.1,0l1.25-.14Z"/>
    </g>
    <path class="cls-11" d="m28.8,32.39l2.16-2.16c.97-.97.97-2.53,0-3.5-.97-.97-2.53-.97-3.5,0l-2.16,2.16-2.16-2.16c-.97-.97-2.53-.97-3.5,0-.97.97-.97,2.53,0,3.5l2.16,2.16-2.16,2.16c-.97.97-.97,2.53,0,3.5.97.97,2.53.97,3.5,0l2.16-2.16,2.16,2.16c.97.97,2.53.97,3.5,0,.97-.97.97-2.53,0-3.5l-2.16-2.16Z"/>
    <path class="cls-11" d="m46.11,32.39l2.16-2.16c.97-.97.97-2.53,0-3.5-.97-.97-2.53-.97-3.5,0l-2.16,2.16-2.16-2.16c-.97-.97-2.53-.97-3.5,0-.97.97-.97,2.53,0,3.5l2.16,2.16-2.16,2.16c-.97.97-.97,2.53,0,3.5.97.97,2.53.97,3.5,0l2.16-2.16,2.16,2.16c.97.97,2.53.97,3.5,0,.97-.97.97-2.53,0-3.5l-2.16-2.16Z"/>
  </g>
  <text class="cls-115" transform="translate(67.7 52.15)"><tspan x="0" y="0">MASTER</tspan></text>
  <text class="cls-12" transform="translate(99.7 77.06)"><tspan x="0" y="0">OF COLLE</tspan><tspan class="cls-123" x="107.51" y="0">C</tspan><tspan x="122.84" y="0">TING</tspan></text>
</svg>