<?xml version="1.0" encoding="UTF-8"?>
<svg id="Capa_1" data-name="Capa 1" xmlns="http://www.w3.org/2000/svg" xmlns:xlink="http://www.w3.org/1999/xlink" viewBox="0 0 252 216">
  <defs>
    <style>
      .cls-1 {
        fill: #faaf3b;
      }

      .cls-2 {
        fill: #fff;
      }

      .cls-3 {
        fill: url(#Degradado_sin_nombre_4);
        stroke: #000;
        stroke-miterlimit: 10;
        stroke-width: 4px;
      }
    </style>
    <linearGradient id="Degradado_sin_nombre_4" data-name="Degradado sin nombre 4" x1="126" y1="-6.7" x2="126" y2="133.14" gradientUnits="userSpaceOnUse">
      <stop offset="0" stop-color="#a5dd4b"/>
      <stop offset=".12" stop-color="#9ed94a"/>
      <stop offset=".29" stop-color="#8bd14a"/>
      <stop offset=".49" stop-color="#6cc248"/>
      <stop offset=".72" stop-color="#40ae47"/>
      <stop offset=".96" stop-color="#099545"/>
      <stop offset="1" stop-color="#009145"/>
    </linearGradient>
  </defs>
  <rect class="cls-1" x="25.25" y="187.11" width="201.5" height="23"/>
  <g>
    <path class="cls-3" d="m175,54.89c0-27.06-21.94-49-49-49s-49,21.94-49,49c0,.74.02,1.48.06,2.22-.03.3-.06.61-.06.93v49c0,4.51,3.66,8.17,8.17,8.17s8.17-3.66,8.17-8.17v-15.63c3.21,2.87,6.8,5.32,10.68,7.27v23.43c0,4.51,3.66,8.17,8.17,8.17s8.17-3.66,8.17-8.17v-18.55c1.86.21,3.74.33,5.65.33s3.8-.12,5.65-.33v18.55c0,4.51,3.66,8.17,8.17,8.17s8.17-3.66,8.17-8.17v-23.43c3.88-1.95,7.47-4.4,10.68-7.27v15.63c0,4.51,3.66,8.17,8.17,8.17s8.17-3.66,8.17-8.17v-49c0-.31-.02-.62-.06-.93.03-.73.06-1.47.06-2.22Z"/>
    <path class="cls-2" d="m118.24,43.74l3.83-3.83c1.72-1.72,1.72-4.5,0-6.22-1.72-1.72-4.5-1.72-6.22,0l-3.83,3.83-3.83-3.83c-1.72-1.72-4.5-1.72-6.22,0-1.72,1.72-1.72,4.5,0,6.22l3.83,3.83-3.83,3.83c-1.72,1.72-1.72,4.5,0,6.22,1.72,1.72,4.5,1.72,6.22,0l3.83-3.83,3.83,3.83c1.72,1.72,4.5,1.72,6.22,0,1.72-1.72,1.72-4.5,0-6.22l-3.83-3.83Z"/>
    <path class="cls-2" d="m149.02,43.74l3.83-3.83c1.72-1.72,1.72-4.5,0-6.22-1.72-1.72-4.5-1.72-6.22,0l-3.83,3.83-3.83-3.83c-1.72-1.72-4.5-1.72-6.22,0-1.72,1.72-1.72,4.5,0,6.22l3.83,3.83-3.83,3.83c-1.72,1.72-1.72,4.5,0,6.22,1.72,1.72,4.5,1.72,6.22,0l3.83-3.83,3.83,3.83c1.72,1.72,4.5,1.72,6.22,0,1.72-1.72,1.72-4.5,0-6.22l-3.83-3.83Z"/>
  </g>
  <g>
    <path d="m21.95,139.6l9.52,29.68,9.49-29.68h13.54v42.66h-10.31v-9.96l1-20.39-10.31,30.35h-6.8l-10.34-30.38,1,20.42v9.96h-10.28v-42.66h13.51Z"/>
    <path d="m85.26,174.29h-14.09l-2.46,7.97h-10.99l15.64-42.66h9.67l15.76,42.66h-11.04l-2.49-7.97Zm-11.63-7.94h9.17l-4.6-14.79-4.57,14.79Z"/>
    <path d="m123.91,170.92c0-1.5-.53-2.68-1.6-3.52-1.06-.84-2.93-1.71-5.61-2.61-2.68-.9-4.86-1.77-6.56-2.61-5.53-2.71-8.29-6.45-8.29-11.19,0-2.36.69-4.45,2.07-6.25,1.38-1.81,3.33-3.21,5.84-4.22,2.52-1.01,5.35-1.51,8.5-1.51s5.82.55,8.25,1.64c2.43,1.09,4.32,2.65,5.67,4.67s2.02,4.33,2.02,6.93h-10.25c0-1.74-.53-3.09-1.6-4.04-1.06-.96-2.5-1.44-4.32-1.44s-3.29.41-4.35,1.22c-1.06.81-1.6,1.84-1.6,3.09,0,1.09.59,2.08,1.76,2.97,1.17.89,3.23,1.81,6.18,2.75,2.95.95,5.37,1.97,7.27,3.06,4.61,2.66,6.91,6.32,6.91,10.99,0,3.73-1.41,6.66-4.22,8.79s-6.67,3.19-11.57,3.19c-3.46,0-6.59-.62-9.39-1.86s-4.91-2.94-6.33-5.1-2.12-4.64-2.12-7.46h10.31c0,2.29.59,3.97,1.77,5.05,1.18,1.08,3.1,1.63,5.76,1.63,1.7,0,3.04-.37,4.03-1.1.99-.73,1.48-1.76,1.48-3.09Z"/>
    <path d="m172.95,147.54h-12.8v34.72h-10.28v-34.72h-12.57v-7.94h35.65v7.94Z"/>
    <path d="m203.74,164.15h-16.17v10.2h19.1v7.91h-29.38v-42.66h29.44v7.94h-19.16v8.99h16.17v7.62Z"/>
    <path d="m226.71,167.17h-5.57v15.09h-10.28v-42.66h16.79c5.06,0,9.01,1.12,11.87,3.37,2.85,2.24,4.28,5.41,4.28,9.51,0,2.97-.6,5.42-1.8,7.38s-3.08,3.53-5.64,4.74l8.91,17.22v.44h-11.02l-7.53-15.09Zm-5.57-7.91h6.5c1.95,0,3.42-.51,4.41-1.54.99-1.03,1.48-2.46,1.48-4.3s-.5-3.28-1.49-4.33-2.46-1.57-4.39-1.57h-6.5v11.75Z"/>
  </g>
  <g>
    <path class="cls-2" d="m52.58,199.07c0,1.67-.29,3.14-.87,4.4s-1.4,2.23-2.48,2.91-2.31,1.01-3.71,1.01-2.62-.34-3.7-1.01-1.92-1.64-2.51-2.89-.89-2.69-.9-4.32v-.96c0-1.66.29-3.13.88-4.41s1.42-2.25,2.5-2.92,2.31-1.01,3.7-1.01,2.62.33,3.7,1,1.9,1.63,2.49,2.88.88,2.71.89,4.38v.95Zm-2.96-.89c0-1.89-.36-3.34-1.07-4.35s-1.73-1.51-3.04-1.51-2.28.5-3.01,1.51-1.09,2.42-1.11,4.26v.98c0,1.88.37,3.32,1.1,4.35s1.74,1.54,3.04,1.54,2.32-.5,3.03-1.5,1.06-2.46,1.06-4.38v-.89Z"/>
    <path class="cls-2" d="m65.36,199.93h-6.87v7.23h-2.96v-17.06h10.84v2.39h-7.88v5.07h6.87v2.37Z"/>
    <path class="cls-2" d="m87.71,201.6c-.17,1.82-.84,3.24-2.02,4.26s-2.73,1.53-4.68,1.53c-1.36,0-2.56-.32-3.59-.97s-1.83-1.56-2.4-2.75-.86-2.57-.88-4.14v-1.59c0-1.61.29-3.03.86-4.25s1.39-2.17,2.46-2.84,2.3-1,3.7-1c1.88,0,3.4.51,4.55,1.53s1.82,2.46,2,4.33h-2.95c-.14-1.23-.5-2.11-1.07-2.65s-1.42-.81-2.53-.81c-1.29,0-2.28.47-2.97,1.41s-1.04,2.33-1.06,4.15v1.51c0,1.84.33,3.25.99,4.22s1.63,1.45,2.9,1.45c1.16,0,2.04-.26,2.62-.79s.96-1.39,1.11-2.61h2.95Z"/>
    <path class="cls-2" d="m103.97,199.07c0,1.67-.29,3.14-.87,4.4s-1.4,2.23-2.48,2.91-2.31,1.01-3.71,1.01-2.62-.34-3.7-1.01-1.92-1.64-2.51-2.89-.89-2.69-.9-4.32v-.96c0-1.66.29-3.13.88-4.41s1.42-2.25,2.5-2.92,2.31-1.01,3.7-1.01,2.62.33,3.7,1,1.9,1.63,2.49,2.88.88,2.71.89,4.38v.95Zm-2.96-.89c0-1.89-.36-3.34-1.07-4.35s-1.73-1.51-3.04-1.51-2.28.5-3.01,1.51-1.09,2.42-1.11,4.26v.98c0,1.88.37,3.32,1.1,4.35s1.74,1.54,3.04,1.54,2.32-.5,3.03-1.5,1.06-2.46,1.06-4.38v-.89Z"/>
    <path class="cls-2" d="m109.89,204.79h7.75v2.37h-10.71v-17.06h2.96v14.7Z"/>
    <path class="cls-2" d="m122.88,204.79h7.75v2.37h-10.71v-17.06h2.96v14.7Z"/>
    <path class="cls-2" d="m142.87,199.54h-7.01v5.25h8.19v2.37h-11.16v-17.06h11.07v2.39h-8.11v4.71h7.01v2.34Z"/>
    <path class="cls-2" d="m159.49,201.6c-.17,1.82-.84,3.24-2.02,4.26s-2.73,1.53-4.68,1.53c-1.36,0-2.56-.32-3.59-.97s-1.83-1.56-2.4-2.75-.86-2.57-.88-4.14v-1.59c0-1.61.29-3.03.86-4.25s1.39-2.17,2.46-2.84,2.3-1,3.7-1c1.88,0,3.4.51,4.55,1.53s1.82,2.46,2,4.33h-2.95c-.14-1.23-.5-2.11-1.07-2.65s-1.42-.81-2.53-.81c-1.29,0-2.28.47-2.97,1.41s-1.04,2.33-1.06,4.15v1.51c0,1.84.33,3.25.99,4.22s1.63,1.45,2.9,1.45c1.16,0,2.04-.26,2.62-.79s.96-1.39,1.11-2.61h2.95Z"/>
    <path class="cls-2" d="m174.12,192.49h-5.32v14.67h-2.94v-14.67h-5.27v-2.39h13.54v2.39Z"/>
    <path class="cls-2" d="m179.49,207.16h-2.95v-17.06h2.95v17.06Z"/>
    <path class="cls-2" d="m196.67,207.16h-2.96l-7.61-12.11v12.11h-2.96v-17.06h2.96l7.63,12.15v-12.15h2.94v17.06Z"/>
    <path class="cls-2" d="m213.25,204.94c-.62.8-1.47,1.41-2.57,1.83s-2.34.62-3.73.62-2.7-.32-3.8-.97-1.95-1.58-2.55-2.78-.91-2.62-.93-4.22v-1.34c0-2.58.62-4.59,1.85-6.04s2.96-2.17,5.17-2.17c1.9,0,3.41.47,4.52,1.41s1.79,2.29,2.02,4.06h-2.91c-.33-2.05-1.52-3.08-3.57-3.08-1.33,0-2.34.48-3.03,1.43s-1.05,2.36-1.07,4.21v1.31c0,1.84.39,3.27,1.17,4.29.78,1.02,1.86,1.53,3.24,1.53,1.52,0,2.59-.34,3.23-1.03v-3.34h-3.52v-2.25h6.47v6.54Z"/>
  </g>
</svg>