<?xml version="1.0" encoding="UTF-8"?>
<svg id="Capa_1" data-name="Capa 1" xmlns="http://www.w3.org/2000/svg" xmlns:xlink="http://www.w3.org/1999/xlink" viewBox="0 0 252 216">
  <defs>
    <style>
      .cls-1 {
        fill: #55b848;
      }

      .cls-2 {
        fill: #9eda4b;
      }

      .cls-3 {
        fill: #9cd94b;
      }

      .cls-4 {
        fill: #33a947;
      }

      .cls-5 {
        fill: #23a146;
      }

      .cls-6 {
        fill: #6fc449;
      }

      .cls-7 {
        fill: #96d64a;
      }

      .cls-8 {
        fill: #52b748;
      }

      .cls-9 {
        fill: #7dca4a;
      }

      .cls-10 {
        fill: #fff;
      }

      .cls-11 {
        fill: #3fae47;
      }

      .cls-12 {
        fill: #7ac949;
      }

      .cls-13 {
        fill: #46b148;
      }

      .cls-14 {
        fill: #91d44a;
      }

      .cls-15 {
        fill: #53b748;
      }

      .cls-16 {
        fill: #139a46;
      }

      .cls-17 {
        fill: #40af47;
      }

      .cls-18 {
        fill: #1c9e46;
      }

      .cls-19 {
        fill: #129946;
      }

      .cls-20 {
        fill: #99d74b;
      }

      .cls-21 {
        fill: #5bbb48;
      }

      .cls-22 {
        fill: #70c449;
      }

      .cls-23 {
        fill: #89d04a;
      }

      .cls-24 {
        fill: #77c849;
      }

      .cls-25 {
        fill: #9fda4b;
      }

      .cls-26 {
        fill: #2fa747;
      }

      .cls-27 {
        fill: #0c9645;
      }

      .cls-28 {
        fill: #98d74b;
      }

      .cls-29 {
        fill: #60bd48;
      }

      .cls-30 {
        fill: #1d9e46;
      }

      .cls-31 {
        fill: #0a9645;
      }

      .cls-32 {
        fill: #4fb548;
      }

      .cls-33 {
        fill: #8bd14a;
      }

      .cls-34 {
        fill: #66c049;
      }

      .cls-35 {
        fill: #94d54a;
      }

      .cls-36 {
        fill: #2aa447;
      }

      .cls-37 {
        fill: #93d54a;
      }

      .cls-38 {
        fill: #78c849;
      }

      .cls-39 {
        fill: #8dd24a;
      }

      .cls-40 {
        fill: #64bf49;
      }

      .cls-41 {
        fill: #079445;
      }

      .cls-42 {
        fill: #87cf4a;
      }

      .cls-43 {
        fill: #6ec449;
      }

      .cls-44 {
        fill: #50b648;
      }

      .cls-45 {
        fill: #34a947;
      }

      .cls-46 {
        fill: #9dd94b;
      }

      .cls-47 {
        fill: #099545;
      }

      .cls-48 {
        fill: #71c549;
      }

      .cls-49 {
        fill: #95d64a;
      }

      .cls-50 {
        fill: #92d44a;
      }

      .cls-51 {
        fill: #68c149;
      }

      .cls-52 {
        fill: #2ba547;
      }

      .cls-53 {
        fill: #97d64a;
      }

      .cls-54 {
        fill: #24a246;
      }

      .cls-55 {
        fill: #56b948;
      }

      .cls-56 {
        fill: #88d04a;
      }

      .cls-57 {
        fill: #79c949;
      }

      .cls-58 {
        fill: #0a364f;
      }

      .cls-59 {
        fill: #109846;
      }

      .cls-60 {
        fill: #97d74b;
      }

      .cls-61 {
        fill: #37aa47;
      }

      .cls-62 {
        fill: #21a046;
      }

      .cls-63 {
        fill: #5dbc48;
      }

      .cls-64 {
        fill: #69c249;
      }

      .cls-65 {
        fill: #3ead47;
      }

      .cls-66 {
        fill: #65c049;
      }

      .cls-67 {
        fill: #82cd4a;
      }

      .cls-68 {
        fill: #81cd4a;
      }

      .cls-69 {
        fill: #4bb448;
      }

      .cls-70 {
        fill: #74c649;
      }

      .cls-71 {
        fill: #20a046;
      }

      .cls-72 {
        fill: #38ab47;
      }

      .cls-73 {
        fill: #7fcc4a;
      }

      .cls-74 {
        fill: #3bac47;
      }

      .cls-75 {
        fill: #9bd84b;
      }

      .cls-76 {
        fill: #179c46;
      }

      .cls-77 {
        fill: #1a9d46;
      }

      .cls-78 {
        fill: #72c549;
      }

      .cls-79 {
        fill: #41af47;
      }

      .cls-80 {
        fill: #3aac47;
      }

      .cls-81 {
        fill: #7bca49;
      }

      .cls-82 {
        fill: #159a46;
      }

      .cls-83 {
        fill: #5cbb48;
      }

      .cls-84 {
        fill: #5ebc48;
      }

      .cls-85 {
        fill: #83cd4a;
      }

      .cls-86 {
        fill: #75c749;
      }

      .cls-87 {
        fill: #85ce4a;
      }

      .cls-88 {
        fill: #57b948;
      }

      .cls-89 {
        fill: #30a747;
      }

      .cls-90 {
        fill: #84ce4a;
      }

      .cls-91 {
        fill: #80cc4a;
      }

      .cls-92 {
        fill: #26a246;
      }

      .cls-93 {
        fill: #73c649;
      }

      .cls-94 {
        fill: #4db448;
      }

      .cls-95 {
        fill: #62be49;
      }

      .cls-96 {
        fill: #169b46;
      }

      .cls-97 {
        clip-path: url(#clippath);
      }

      .cls-98 {
        fill: #7ecb4a;
      }

      .cls-99 {
        fill: #61be49;
      }

      .cls-100 {
        fill: #7cca49;
      }

      .cls-101 {
        fill: #a0db4b;
      }

      .cls-102 {
        fill: #95d54a;
      }

      .cls-103 {
        fill: #28a446;
      }

      .cls-104 {
        fill: #32a847;
      }

      .cls-105 {
        fill: #44b047;
      }

      .cls-106 {
        fill: #54b848;
      }

      .cls-107 {
        fill: #63bf49;
      }

      .cls-108 {
        fill: #6ac249;
      }

      .cls-109 {
        fill: none;
      }

      .cls-110 {
        fill: #43b047;
      }

      .cls-111 {
        fill: #90d34a;
      }

      .cls-112 {
        fill: #59ba48;
      }

      .cls-113 {
        fill: #8fd34a;
      }

      .cls-114 {
        fill: #6dc349;
      }

      .cls-115 {
        fill: #99d84b;
      }

      .cls-116 {
        fill: #3cad47;
      }

      .cls-117 {
        fill: #069445;
      }

      .cls-118 {
        fill: #8ed24a;
      }

      .cls-119 {
        fill: #2ea647;
      }

      .cls-120 {
        fill: #8cd24a;
      }

      .cls-121 {
        fill: #27a346;
      }

      .cls-122 {
        fill: #199c46;
      }

      .cls-123 {
        fill: #0f9846;
      }

      .cls-124 {
        fill: #8ad14a;
      }

      .cls-125 {
        fill: #4eb548;
      }

      .cls-126 {
        fill: #67c149;
      }

      .cls-127 {
        fill: #48b248;
      }

      .cls-128 {
        fill: #6cc349;
      }

      .cls-129 {
        fill: #36aa47;
      }

      .cls-130 {
        fill: #9ad84b;
      }

      .cls-131 {
        fill: #49b348;
      }

      .cls-132 {
        fill: #2ca547;
      }

      .cls-133 {
        fill: #5aba48;
      }

      .cls-134 {
        fill: #a1db4b;
      }

      .cls-135 {
        fill: #86cf4a;
      }

      .cls-136 {
        fill: #049345;
      }

      .cls-137 {
        fill: #1f9f46;
      }

      .cls-138 {
        fill: #76c749;
      }

      .cls-139 {
        fill: #0d9745;
      }

      .cls-140 {
        fill: #4ab348;
      }

      .cls-141 {
        fill: #45b148;
      }

      .cls-142 {
        fill: #8cd14a;
      }
    </style>
    <clipPath id="clippath">
      <path class="cls-109" d="m175,54.89c0-27.06-21.94-49-49-49s-49,21.94-49,49c0,.74.02,1.48.06,2.22-.03.3-.06.61-.06.93v49c0,4.51,3.66,8.17,8.17,8.17s8.17-3.66,8.17-8.17v-15.63c3.21,2.87,6.8,5.32,10.68,7.27v23.43c0,4.51,3.66,8.17,8.17,8.17s8.17-3.66,8.17-8.17v-18.55c1.86.21,3.74.33,5.65.33s3.8-.12,5.65-.33v18.55c0,4.51,3.66,8.17,8.17,8.17s8.17-3.66,8.17-8.17v-23.43c3.88-1.95,7.47-4.4,10.68-7.27v15.63c0,4.51,3.66,8.17,8.17,8.17s8.17-3.66,8.17-8.17v-49c0-.31-.02-.62-.06-.93.03-.73.06-1.47.06-2.22Z"/>
    </clipPath>
  </defs>
  <rect class="cls-58" x="25.25" y="187.11" width="201.5" height="23"/>
  <g>
    <g>
      <g class="cls-97">
        <rect class="cls-134" x="77" y="5.89" width="98" height=".12"/>
        <rect class="cls-101" x="77" y="6.01" width="98" height=".85"/>
        <rect class="cls-101" x="77" y="6.86" width="98" height=".85"/>
        <rect class="cls-25" x="77" y="7.71" width="98" height=".85"/>
        <rect class="cls-25" x="77" y="8.55" width="98" height=".85"/>
        <rect class="cls-2" x="77" y="9.4" width="98" height=".85"/>
        <rect class="cls-2" x="77" y="10.25" width="98" height=".85"/>
        <rect class="cls-46" x="77" y="11.1" width="98" height=".85"/>
        <rect class="cls-46" x="77" y="11.94" width="98" height=".85"/>
        <rect class="cls-3" x="77" y="12.79" width="98" height=".85"/>
        <rect class="cls-3" x="77" y="13.64" width="98" height=".85"/>
        <rect class="cls-75" x="77" y="14.49" width="98" height=".85"/>
        <rect class="cls-75" x="77" y="15.33" width="98" height=".85"/>
        <rect class="cls-130" x="77" y="16.18" width="98" height=".85"/>
        <rect class="cls-115" x="77" y="17.03" width="98" height=".85"/>
        <rect class="cls-20" x="77" y="17.88" width="98" height=".85"/>
        <rect class="cls-28" x="77" y="18.72" width="98" height=".85"/>
        <rect class="cls-60" x="77" y="19.57" width="98" height=".85"/>
        <rect class="cls-53" x="77" y="20.42" width="98" height=".85"/>
        <rect class="cls-7" x="77" y="21.27" width="98" height=".85"/>
        <rect class="cls-49" x="77" y="22.11" width="98" height=".85"/>
        <rect class="cls-102" x="77" y="22.96" width="98" height=".85"/>
        <rect class="cls-35" x="77" y="23.81" width="98" height=".85"/>
        <rect class="cls-37" x="77" y="24.66" width="98" height=".85"/>
        <rect class="cls-50" x="77" y="25.5" width="98" height=".85"/>
        <rect class="cls-50" x="77" y="26.35" width="98" height=".85"/>
        <rect class="cls-14" x="77" y="27.2" width="98" height=".85"/>
        <rect class="cls-111" x="77" y="28.05" width="98" height=".85"/>
        <rect class="cls-113" x="77" y="28.89" width="98" height=".85"/>
        <rect class="cls-113" x="77" y="29.74" width="98" height=".85"/>
        <rect class="cls-118" x="77" y="30.59" width="98" height=".85"/>
        <rect class="cls-39" x="77" y="31.44" width="98" height=".85"/>
        <rect class="cls-120" x="77" y="32.28" width="98" height=".85"/>
        <rect class="cls-142" x="77" y="33.13" width="98" height=".85"/>
        <rect class="cls-33" x="77" y="33.98" width="98" height=".85"/>
        <rect class="cls-124" x="77" y="34.83" width="98" height=".85"/>
        <rect class="cls-23" x="77" y="35.67" width="98" height=".85"/>
        <rect class="cls-56" x="77" y="36.52" width="98" height=".85"/>
        <rect class="cls-42" x="77" y="37.37" width="98" height=".85"/>
        <rect class="cls-42" x="77" y="38.22" width="98" height=".85"/>
        <rect class="cls-135" x="77" y="39.06" width="98" height=".85"/>
        <rect class="cls-87" x="77" y="39.91" width="98" height=".85"/>
        <rect class="cls-90" x="77" y="40.76" width="98" height=".85"/>
        <rect class="cls-85" x="77" y="41.61" width="98" height=".85"/>
        <rect class="cls-67" x="77" y="42.46" width="98" height=".85"/>
        <rect class="cls-68" x="77" y="43.3" width="98" height=".85"/>
        <rect class="cls-91" x="77" y="44.15" width="98" height=".85"/>
        <rect class="cls-73" x="77" y="45" width="98" height=".85"/>
        <rect class="cls-98" x="77" y="45.85" width="98" height=".85"/>
        <rect class="cls-98" x="77" y="46.69" width="98" height=".85"/>
        <rect class="cls-9" x="77" y="47.54" width="98" height=".85"/>
        <rect class="cls-100" x="77" y="48.39" width="98" height=".85"/>
        <rect class="cls-81" x="77" y="49.24" width="98" height=".85"/>
        <rect class="cls-12" x="77" y="50.08" width="98" height=".85"/>
        <rect class="cls-57" x="77" y="50.93" width="98" height=".85"/>
        <rect class="cls-38" x="77" y="51.78" width="98" height=".85"/>
        <rect class="cls-24" x="77" y="52.63" width="98" height=".85"/>
        <rect class="cls-138" x="77" y="53.47" width="98" height=".85"/>
        <rect class="cls-86" x="77" y="54.32" width="98" height=".85"/>
        <rect class="cls-70" x="77" y="55.17" width="98" height=".85"/>
        <rect class="cls-93" x="77" y="56.02" width="98" height=".85"/>
        <rect class="cls-78" x="77" y="56.86" width="98" height=".85"/>
        <rect class="cls-48" x="77" y="57.71" width="98" height=".85"/>
        <rect class="cls-22" x="77" y="58.56" width="98" height=".85"/>
        <rect class="cls-6" x="77" y="59.41" width="98" height=".85"/>
        <rect class="cls-43" x="77" y="60.25" width="98" height=".85"/>
        <rect class="cls-114" x="77" y="61.1" width="98" height=".85"/>
        <rect class="cls-128" x="77" y="61.95" width="98" height=".85"/>
        <rect class="cls-108" x="77" y="62.8" width="98" height=".85"/>
        <rect class="cls-64" x="77" y="63.64" width="98" height=".85"/>
        <rect class="cls-51" x="77" y="64.49" width="98" height=".85"/>
        <rect class="cls-126" x="77" y="65.34" width="98" height=".85"/>
        <rect class="cls-34" x="77" y="66.19" width="98" height=".85"/>
        <rect class="cls-66" x="77" y="67.03" width="98" height=".85"/>
        <rect class="cls-40" x="77" y="67.88" width="98" height=".85"/>
        <rect class="cls-107" x="77" y="68.73" width="98" height=".85"/>
        <rect class="cls-95" x="77" y="69.58" width="98" height=".85"/>
        <rect class="cls-99" x="77" y="70.42" width="98" height=".85"/>
        <rect class="cls-29" x="77" y="71.27" width="98" height=".85"/>
        <rect class="cls-84" x="77" y="72.12" width="98" height=".85"/>
        <rect class="cls-63" x="77" y="72.97" width="98" height=".85"/>
        <rect class="cls-83" x="77" y="73.81" width="98" height=".85"/>
        <rect class="cls-21" x="77" y="74.66" width="98" height=".85"/>
        <rect class="cls-133" x="77" y="75.51" width="98" height=".85"/>
        <rect class="cls-112" x="77" y="76.36" width="98" height=".85"/>
        <rect class="cls-88" x="77" y="77.2" width="98" height=".85"/>
        <rect class="cls-55" x="77" y="78.05" width="98" height=".85"/>
        <rect class="cls-1" x="77" y="78.9" width="98" height=".85"/>
        <rect class="cls-106" x="77" y="79.75" width="98" height=".85"/>
        <rect class="cls-15" x="77" y="80.59" width="98" height=".85"/>
        <rect class="cls-8" x="77" y="81.44" width="98" height=".85"/>
        <rect class="cls-44" x="77" y="82.29" width="98" height=".85"/>
        <rect class="cls-32" x="77" y="83.14" width="98" height=".85"/>
        <rect class="cls-125" x="77" y="83.99" width="98" height=".85"/>
        <rect class="cls-94" x="77" y="84.83" width="98" height=".85"/>
        <rect class="cls-69" x="77" y="85.68" width="98" height=".85"/>
        <rect class="cls-140" x="77" y="86.53" width="98" height=".85"/>
        <rect class="cls-131" x="77" y="87.38" width="98" height=".85"/>
        <rect class="cls-127" x="77" y="88.22" width="98" height=".85"/>
        <rect class="cls-13" x="77" y="89.07" width="98" height=".85"/>
        <rect class="cls-141" x="77" y="89.92" width="98" height=".85"/>
        <rect class="cls-105" x="77" y="90.77" width="98" height=".85"/>
        <rect class="cls-110" x="77" y="91.61" width="98" height=".85"/>
        <rect class="cls-79" x="77" y="92.46" width="98" height=".85"/>
        <rect class="cls-17" x="77" y="93.31" width="98" height=".85"/>
        <rect class="cls-11" x="77" y="94.16" width="98" height=".85"/>
        <rect class="cls-65" x="77" y="95" width="98" height=".85"/>
        <rect class="cls-116" x="77" y="95.85" width="98" height=".85"/>
        <rect class="cls-74" x="77" y="96.7" width="98" height=".85"/>
        <rect class="cls-80" x="77" y="97.55" width="98" height=".85"/>
        <rect class="cls-72" x="77" y="98.39" width="98" height=".85"/>
        <rect class="cls-61" x="77" y="99.24" width="98" height=".85"/>
        <rect class="cls-129" x="77" y="100.09" width="98" height=".85"/>
        <rect class="cls-45" x="77" y="100.94" width="98" height=".85"/>
        <rect class="cls-4" x="77" y="101.78" width="98" height=".85"/>
        <rect class="cls-104" x="77" y="102.63" width="98" height=".85"/>
        <rect class="cls-89" x="77" y="103.48" width="98" height=".85"/>
        <rect class="cls-26" x="77" y="104.33" width="98" height=".85"/>
        <rect class="cls-119" x="77" y="105.17" width="98" height=".85"/>
        <rect class="cls-132" x="77" y="106.02" width="98" height=".85"/>
        <rect class="cls-52" x="77" y="106.87" width="98" height=".85"/>
        <rect class="cls-36" x="77" y="107.72" width="98" height=".85"/>
        <rect class="cls-103" x="77" y="108.56" width="98" height=".85"/>
        <rect class="cls-121" x="77" y="109.41" width="98" height=".85"/>
        <rect class="cls-92" x="77" y="110.26" width="98" height=".85"/>
        <rect class="cls-54" x="77" y="111.11" width="98" height=".85"/>
        <rect class="cls-5" x="77" y="111.95" width="98" height=".85"/>
        <rect class="cls-62" x="77" y="112.8" width="98" height=".85"/>
        <rect class="cls-71" x="77" y="113.65" width="98" height=".85"/>
        <rect class="cls-137" x="77" y="114.5" width="98" height=".85"/>
        <rect class="cls-30" x="77" y="115.34" width="98" height=".85"/>
        <rect class="cls-18" x="77" y="116.19" width="98" height=".85"/>
        <rect class="cls-77" x="77" y="117.04" width="98" height=".85"/>
        <rect class="cls-122" x="77" y="117.89" width="98" height=".85"/>
        <rect class="cls-76" x="77" y="118.73" width="98" height=".85"/>
        <rect class="cls-96" x="77" y="119.58" width="98" height=".85"/>
        <rect class="cls-82" x="77" y="120.43" width="98" height=".85"/>
        <rect class="cls-16" x="77" y="121.28" width="98" height=".85"/>
        <rect class="cls-19" x="77" y="122.12" width="98" height=".85"/>
        <rect class="cls-59" x="77" y="122.97" width="98" height=".85"/>
        <rect class="cls-123" x="77" y="123.82" width="98" height=".85"/>
        <rect class="cls-139" x="77" y="124.67" width="98" height=".85"/>
        <rect class="cls-27" x="77" y="125.52" width="98" height=".85"/>
        <rect class="cls-31" x="77" y="126.36" width="98" height=".85"/>
        <rect class="cls-47" x="77" y="127.21" width="98" height=".85"/>
        <rect class="cls-41" x="77" y="128.06" width="98" height=".85"/>
        <rect class="cls-117" x="77" y="128.91" width="98" height=".85"/>
        <rect class="cls-136" x="77" y="129.75" width="98" height=".52"/>
      </g>
      <path d="m139.82,132.28c-5.61,0-10.17-4.56-10.17-10.17v-16.36c-2.48.18-4.82.18-7.31,0v16.36c0,5.61-4.56,10.17-10.17,10.17s-10.17-4.56-10.17-10.17v-22.22c-2.34-1.25-4.57-2.67-6.68-4.26v11.4c0,5.61-4.56,10.17-10.17,10.17s-10.17-4.56-10.17-10.17v-49c0-.33.02-.66.05-.99-.03-.71-.05-1.43-.05-2.15,0-28.12,22.88-51,51-51s51,22.88,51,51c0,.72-.02,1.44-.05,2.15.03.33.05.65.05.99v49c0,5.61-4.56,10.17-10.17,10.17s-10.17-4.56-10.17-10.17v-11.4c-2.11,1.59-4.34,3.01-6.68,4.26v22.22c0,5.61-4.56,10.17-10.17,10.17Zm-6.17-30.96v20.79c0,3.4,2.77,6.17,6.17,6.17s6.17-2.77,6.17-6.17v-24.66l1.1-.55c3.71-1.87,7.16-4.21,10.24-6.98l3.33-2.98v20.1c0,3.4,2.77,6.17,6.17,6.17s6.17-2.77,6.17-6.17v-49c0-.24-.02-.47-.04-.7l-.02-.16v-.16c.04-.71.06-1.41.06-2.13,0-25.92-21.08-47-47-47s-47,21.08-47,47c0,.71.02,1.42.05,2.13v.16s-.01.16-.01.16c-.03.23-.04.46-.04.7v49c0,3.4,2.77,6.17,6.17,6.17s6.17-2.77,6.17-6.17v-20.1l3.33,2.98c3.08,2.76,6.53,5.11,10.24,6.98l1.1.55v24.66c0,3.4,2.77,6.17,6.17,6.17s6.17-2.77,6.17-6.17v-20.79l2.23.25c3.71.43,7.14.43,10.85,0l2.23-.25Z"/>
    </g>
    <path class="cls-10" d="m118.24,43.74l3.83-3.83c1.72-1.72,1.72-4.5,0-6.22-1.72-1.72-4.5-1.72-6.22,0l-3.83,3.83-3.83-3.83c-1.72-1.72-4.5-1.72-6.22,0-1.72,1.72-1.72,4.5,0,6.22l3.83,3.83-3.83,3.83c-1.72,1.72-1.72,4.5,0,6.22,1.72,1.72,4.5,1.72,6.22,0l3.83-3.83,3.83,3.83c1.72,1.72,4.5,1.72,6.22,0,1.72-1.72,1.72-4.5,0-6.22l-3.83-3.83Z"/>
    <path class="cls-10" d="m149.02,43.74l3.83-3.83c1.72-1.72,1.72-4.5,0-6.22-1.72-1.72-4.5-1.72-6.22,0l-3.83,3.83-3.83-3.83c-1.72-1.72-4.5-1.72-6.22,0-1.72,1.72-1.72,4.5,0,6.22l3.83,3.83-3.83,3.83c-1.72,1.72-1.72,4.5,0,6.22,1.72,1.72,4.5,1.72,6.22,0l3.83-3.83,3.83,3.83c1.72,1.72,4.5,1.72,6.22,0,1.72-1.72,1.72-4.5,0-6.22l-3.83-3.83Z"/>
  </g>
  <g>
    <path d="m21.95,139.6l9.52,29.68,9.49-29.68h13.54v42.66h-10.31v-9.96l1-20.39-10.31,30.35h-6.8l-10.34-30.38,1,20.42v9.96h-10.28v-42.66h13.51Z"/>
    <path d="m85.26,174.29h-14.09l-2.46,7.97h-10.99l15.64-42.66h9.67l15.76,42.66h-11.04l-2.49-7.97Zm-11.63-7.94h9.17l-4.6-14.79-4.57,14.79Z"/>
    <path d="m123.91,170.92c0-1.5-.53-2.68-1.6-3.52s-2.93-1.71-5.61-2.61-4.86-1.77-6.56-2.61c-5.53-2.71-8.29-6.45-8.29-11.19,0-2.36.69-4.45,2.07-6.25s3.33-3.21,5.84-4.22,5.35-1.51,8.5-1.51,5.82.55,8.25,1.64,4.32,2.65,5.67,4.67,2.02,4.33,2.02,6.93h-10.25c0-1.74-.53-3.09-1.6-4.04s-2.5-1.44-4.32-1.44-3.29.41-4.35,1.22-1.6,1.84-1.6,3.09c0,1.09.59,2.08,1.76,2.97s3.23,1.81,6.18,2.75,5.37,1.97,7.27,3.06c4.61,2.66,6.91,6.32,6.91,10.99,0,3.73-1.41,6.66-4.22,8.79s-6.67,3.19-11.57,3.19c-3.46,0-6.59-.62-9.39-1.86s-4.91-2.94-6.33-5.1-2.12-4.64-2.12-7.46h10.31c0,2.29.59,3.97,1.77,5.05s3.1,1.63,5.76,1.63c1.7,0,3.04-.37,4.03-1.1s1.48-1.76,1.48-3.09Z"/>
    <path d="m172.95,147.54h-12.8v34.72h-10.28v-34.72h-12.57v-7.94h35.65v7.94Z"/>
    <path d="m203.74,164.15h-16.17v10.2h19.1v7.91h-29.38v-42.66h29.44v7.94h-19.16v8.99h16.17v7.62Z"/>
    <path d="m226.71,167.17h-5.57v15.09h-10.28v-42.66h16.79c5.06,0,9.01,1.12,11.87,3.37,2.85,2.24,4.28,5.41,4.28,9.51,0,2.97-.6,5.42-1.8,7.38s-3.08,3.53-5.64,4.74l8.91,17.22v.44h-11.02l-7.53-15.09Zm-5.57-7.91h6.5c1.95,0,3.42-.51,4.41-1.54s1.48-2.46,1.48-4.3-.5-3.29-1.49-4.33c-1-1.05-2.46-1.57-4.39-1.57h-6.5v11.75Z"/>
  </g>
  <g>
    <path class="cls-10" d="m52.58,199.07c0,1.67-.29,3.14-.87,4.4s-1.4,2.23-2.48,2.91-2.31,1.01-3.71,1.01-2.62-.34-3.7-1.01-1.92-1.64-2.51-2.89-.89-2.69-.9-4.32v-.96c0-1.66.29-3.13.88-4.41s1.42-2.25,2.5-2.92,2.31-1.01,3.7-1.01,2.62.33,3.7,1,1.9,1.63,2.49,2.88.88,2.71.89,4.38v.95Zm-2.96-.89c0-1.89-.36-3.34-1.07-4.35s-1.73-1.51-3.04-1.51-2.28.5-3.01,1.51-1.09,2.42-1.11,4.26v.98c0,1.88.37,3.32,1.1,4.35s1.74,1.54,3.04,1.54,2.32-.5,3.03-1.5,1.06-2.46,1.06-4.38v-.89Z"/>
    <path class="cls-10" d="m65.36,199.93h-6.87v7.23h-2.96v-17.06h10.84v2.39h-7.88v5.07h6.87v2.37Z"/>
    <path class="cls-10" d="m87.71,201.6c-.17,1.82-.84,3.24-2.02,4.26s-2.73,1.53-4.68,1.53c-1.36,0-2.56-.32-3.59-.97s-1.83-1.56-2.4-2.75-.86-2.57-.88-4.14v-1.59c0-1.61.29-3.03.86-4.25s1.39-2.17,2.46-2.84,2.3-1,3.7-1c1.88,0,3.4.51,4.55,1.53s1.82,2.46,2,4.33h-2.95c-.14-1.23-.5-2.11-1.07-2.65s-1.42-.81-2.53-.81c-1.29,0-2.28.47-2.97,1.41s-1.04,2.33-1.06,4.15v1.51c0,1.84.33,3.25.99,4.22s1.63,1.45,2.9,1.45c1.16,0,2.04-.26,2.62-.79s.96-1.39,1.11-2.61h2.95Z"/>
    <path class="cls-10" d="m103.97,199.07c0,1.67-.29,3.14-.87,4.4s-1.4,2.23-2.48,2.91-2.31,1.01-3.71,1.01-2.62-.34-3.7-1.01-1.92-1.64-2.51-2.89-.89-2.69-.9-4.32v-.96c0-1.66.29-3.13.88-4.41s1.42-2.25,2.5-2.92,2.31-1.01,3.7-1.01,2.62.33,3.7,1,1.9,1.63,2.49,2.88.88,2.71.89,4.38v.95Zm-2.96-.89c0-1.89-.36-3.34-1.07-4.35s-1.73-1.51-3.04-1.51-2.28.5-3.01,1.51-1.09,2.42-1.11,4.26v.98c0,1.88.37,3.32,1.1,4.35s1.74,1.54,3.04,1.54,2.32-.5,3.03-1.5,1.06-2.46,1.06-4.38v-.89Z"/>
    <path class="cls-10" d="m109.89,204.79h7.75v2.37h-10.71v-17.06h2.96v14.7Z"/>
    <path class="cls-10" d="m122.88,204.79h7.75v2.37h-10.71v-17.06h2.96v14.7Z"/>
    <path class="cls-10" d="m142.87,199.54h-7.01v5.25h8.19v2.37h-11.16v-17.06h11.07v2.39h-8.11v4.71h7.01v2.34Z"/>
    <path class="cls-10" d="m159.49,201.6c-.17,1.82-.84,3.24-2.02,4.26s-2.73,1.53-4.68,1.53c-1.36,0-2.56-.32-3.59-.97s-1.83-1.56-2.4-2.75-.86-2.57-.88-4.14v-1.59c0-1.61.29-3.03.86-4.25s1.39-2.17,2.46-2.84,2.3-1,3.7-1c1.88,0,3.4.51,4.55,1.53s1.82,2.46,2,4.33h-2.95c-.14-1.23-.5-2.11-1.07-2.65s-1.42-.81-2.53-.81c-1.29,0-2.28.47-2.97,1.41s-1.04,2.33-1.06,4.15v1.51c0,1.84.33,3.25.99,4.22s1.63,1.45,2.9,1.45c1.16,0,2.04-.26,2.62-.79s.96-1.39,1.11-2.61h2.95Z"/>
    <path class="cls-10" d="m174.12,192.49h-5.32v14.67h-2.94v-14.67h-5.27v-2.39h13.54v2.39Z"/>
    <path class="cls-10" d="m179.49,207.16h-2.95v-17.06h2.95v17.06Z"/>
    <path class="cls-10" d="m196.67,207.16h-2.96l-7.61-12.11v12.11h-2.96v-17.06h2.96l7.63,12.15v-12.15h2.94v17.06Z"/>
    <path class="cls-10" d="m213.25,204.94c-.62.8-1.47,1.41-2.57,1.83s-2.34.62-3.73.62-2.7-.32-3.8-.97-1.95-1.58-2.55-2.78-.91-2.62-.93-4.22v-1.34c0-2.58.62-4.59,1.85-6.04s2.96-2.17,5.17-2.17c1.9,0,3.41.47,4.52,1.41s1.79,2.29,2.02,4.06h-2.91c-.33-2.05-1.52-3.08-3.57-3.08-1.33,0-2.34.48-3.03,1.43s-1.05,2.36-1.07,4.21v1.31c0,1.84.39,3.27,1.17,4.29.78,1.02,1.86,1.53,3.24,1.53,1.52,0,2.59-.34,3.23-1.03v-3.34h-3.52v-2.25h6.47v6.54Z"/>
  </g>
</svg>