<?xml version="1.0" encoding="UTF-8"?><svg id="Capa_1" xmlns="http://www.w3.org/2000/svg" xmlns:xlink="http://www.w3.org/1999/xlink" viewBox="0 0 314 85"><defs><style>.cls-1{fill:#55b848;}.cls-2{fill:#9eda4b;}.cls-3{fill:#9cd94b;}.cls-4{fill:#33a947;}.cls-5{fill:#faaf3b;}.cls-6{fill:#23a146;}.cls-7{fill:#6fc449;}.cls-8{fill:#96d64a;}.cls-9{fill:#52b748;}.cls-10{fill:#7dca4a;}.cls-11{fill:#fff;}.cls-12{fill:#3fae47;}.cls-13{fill:#7ac949;}.cls-14{fill:#46b148;}.cls-15{fill:#91d44a;}.cls-16{fill:#53b748;}.cls-17{stroke:#000;stroke-linecap:round;stroke-linejoin:round;stroke-width:1.5px;}.cls-17,.cls-18{fill:#4db448;}.cls-19{fill:#139a46;}.cls-20{fill:#40af47;}.cls-21{fill:#1c9e46;}.cls-22{fill:#129946;}.cls-23{fill:#99d74b;}.cls-24{fill:#5bbb48;}.cls-25{fill:#70c449;}.cls-26{fill:#89d04a;}.cls-27{fill:#77c849;}.cls-28{fill:#9fda4b;}.cls-29{fill:#2fa747;}.cls-30{fill:#0c9645;}.cls-31{fill:#98d74b;}.cls-32{fill:#60bd48;}.cls-33{fill:#1d9e46;}.cls-34{fill:#0a9645;}.cls-35{fill:#4fb548;}.cls-36{fill:#8bd14a;}.cls-37{fill:#66c049;}.cls-38{fill:#94d54a;}.cls-39{fill:#2aa447;}.cls-40{fill:#93d54a;}.cls-41{fill:#78c849;}.cls-42{fill:#8dd24a;}.cls-43{fill:#64bf49;}.cls-44{fill:#079445;}.cls-45{fill:#87cf4a;}.cls-46{fill:#6ec449;}.cls-47{fill:#50b648;}.cls-48{fill:#34a947;}.cls-49{fill:#9dd94b;}.cls-50{fill:#099545;}.cls-51{fill:#71c549;}.cls-52{fill:#95d64a;}.cls-53{fill:#92d44a;}.cls-54{fill:#68c149;}.cls-55{fill:#2ba547;}.cls-56{fill:#97d64a;}.cls-57{fill:#24a246;}.cls-58{fill:#56b948;}.cls-59{fill:#88d04a;}.cls-60{fill:#79c949;}.cls-61{fill:#109846;}.cls-62{fill:#97d74b;}.cls-63{fill:#37aa47;}.cls-64{fill:#21a046;}.cls-65{fill:#5dbc48;}.cls-66{fill:#69c249;}.cls-67{fill:#3ead47;}.cls-68{fill:#65c049;}.cls-69{fill:#82cd4a;}.cls-70{fill:#81cd4a;}.cls-71{fill:#4bb448;}.cls-72{fill:#74c649;}.cls-73{fill:#20a046;}.cls-74{fill:#38ab47;}.cls-75{fill:#7fcc4a;}.cls-76{fill:#3bac47;}.cls-77{fill:#9bd84b;}.cls-78{fill:#179c46;}.cls-79{fill:#1a9d46;}.cls-80{fill:#72c549;}.cls-81{fill:#41af47;}.cls-82{fill:#3aac47;}.cls-83{fill:#7bca49;}.cls-84{fill:#159a46;}.cls-85{fill:#5cbb48;}.cls-86{fill:#5ebc48;}.cls-87{fill:#83cd4a;}.cls-88{fill:#75c749;}.cls-89{fill:#85ce4a;}.cls-90{fill:#57b948;}.cls-91{fill:#30a747;}.cls-92{fill:#84ce4a;}.cls-93{fill:#80cc4a;}.cls-94{fill:#26a246;}.cls-95{fill:#73c649;}.cls-96{fill:#62be49;}.cls-97{fill:#169b46;}.cls-98{clip-path:url(#clippath);}.cls-99{fill:#7ecb4a;}.cls-100{fill:#61be49;}.cls-101{fill:#7cca49;}.cls-102{fill:#a0db4b;}.cls-103{fill:#95d54a;}.cls-104{fill:#28a446;}.cls-105{fill:#32a847;}.cls-106{fill:#44b047;}.cls-107{fill:#54b848;}.cls-108{fill:#63bf49;}.cls-109{fill:#6ac249;}.cls-110{fill:none;}.cls-111{fill:#43b047;}.cls-112{fill:#90d34a;}.cls-113{fill:#59ba48;}.cls-114{fill:#8fd34a;}.cls-115{fill:#6dc349;}.cls-116{fill:#99d84b;}.cls-117{fill:#3cad47;}.cls-118{fill:#069445;}.cls-119{fill:#8ed24a;}.cls-120{fill:#2ea647;}.cls-121{fill:#8cd24a;}.cls-122{fill:#27a346;}.cls-123{fill:#199c46;}.cls-124{fill:#0f9846;}.cls-125{fill:#8ad14a;}.cls-126{fill:#4eb548;}.cls-127{fill:#67c149;}.cls-128{fill:#48b248;}.cls-129{fill:#6cc349;}.cls-130{fill:#36aa47;}.cls-131{fill:#9ad84b;}.cls-132{fill:#49b348;}.cls-133{fill:#2ca547;}.cls-134{fill:#5aba48;}.cls-135{fill:#a1db4b;}.cls-136{fill:#86cf4a;}.cls-137{fill:#049345;}.cls-138{fill:#1f9f46;}.cls-139{fill:#76c749;}.cls-140{fill:#0d9745;}.cls-141{fill:#4ab348;}.cls-142{fill:#45b148;}.cls-143{fill:#8cd14a;}</style><clipPath id="clippath"><path class="cls-110" d="m60.71,37.56c0-15.22-12.34-27.55-27.55-27.55S5.6,22.34,5.6,37.56c0,.42.01.83.03,1.25-.02.17-.03.34-.03.52v27.55c0,2.54,2.06,4.59,4.59,4.59s4.59-2.06,4.59-4.59v-8.79c1.8,1.61,3.82,2.99,6.01,4.09v13.18c0,2.54,2.06,4.59,4.59,4.59s4.59-2.06,4.59-4.59v-10.43c1.04.12,2.1.19,3.18.19s2.14-.07,3.18-.19v10.43c0,2.54,2.06,4.59,4.59,4.59s4.59-2.06,4.59-4.59v-13.18c2.18-1.1,4.2-2.48,6.01-4.09v8.79c0,2.54,2.06,4.59,4.59,4.59s4.59-2.06,4.59-4.59v-27.55c0-.18-.01-.35-.03-.52.02-.41.03-.83.03-1.25Z"/></clipPath></defs><g class="cls-98"><rect class="cls-135" x="5.6" y="10" width="55.11" height=".07"/><rect class="cls-102" x="5.6" y="10.07" width="55.11" height=".48"/><rect class="cls-102" x="5.6" y="10.55" width="55.11" height=".48"/><rect class="cls-28" x="5.6" y="11.03" width="55.11" height=".48"/><rect class="cls-28" x="5.6" y="11.5" width="55.11" height=".48"/><rect class="cls-2" x="5.6" y="11.98" width="55.11" height=".48"/><rect class="cls-2" x="5.6" y="12.46" width="55.11" height=".48"/><rect class="cls-49" x="5.6" y="12.93" width="55.11" height=".48"/><rect class="cls-49" x="5.6" y="13.41" width="55.11" height=".48"/><rect class="cls-3" x="5.6" y="13.88" width="55.11" height=".48"/><rect class="cls-3" x="5.6" y="14.36" width="55.11" height=".48"/><rect class="cls-77" x="5.6" y="14.84" width="55.11" height=".48"/><rect class="cls-77" x="5.6" y="15.31" width="55.11" height=".48"/><rect class="cls-131" x="5.6" y="15.79" width="55.11" height=".48"/><rect class="cls-116" x="5.6" y="16.27" width="55.11" height=".48"/><rect class="cls-23" x="5.6" y="16.74" width="55.11" height=".48"/><rect class="cls-31" x="5.6" y="17.22" width="55.11" height=".48"/><rect class="cls-62" x="5.6" y="17.7" width="55.11" height=".48"/><rect class="cls-56" x="5.6" y="18.17" width="55.11" height=".48"/><rect class="cls-8" x="5.6" y="18.65" width="55.11" height=".48"/><rect class="cls-52" x="5.6" y="19.13" width="55.11" height=".48"/><rect class="cls-103" x="5.6" y="19.6" width="55.11" height=".48"/><rect class="cls-38" x="5.6" y="20.08" width="55.11" height=".48"/><rect class="cls-40" x="5.6" y="20.56" width="55.11" height=".48"/><rect class="cls-53" x="5.6" y="21.03" width="55.11" height=".48"/><rect class="cls-53" x="5.6" y="21.51" width="55.11" height=".48"/><rect class="cls-15" x="5.6" y="21.99" width="55.11" height=".48"/><rect class="cls-112" x="5.6" y="22.46" width="55.11" height=".48"/><rect class="cls-114" x="5.6" y="22.94" width="55.11" height=".48"/><rect class="cls-114" x="5.6" y="23.42" width="55.11" height=".48"/><rect class="cls-119" x="5.6" y="23.89" width="55.11" height=".48"/><rect class="cls-42" x="5.6" y="24.37" width="55.11" height=".48"/><rect class="cls-121" x="5.6" y="24.85" width="55.11" height=".48"/><rect class="cls-143" x="5.6" y="25.32" width="55.11" height=".48"/><rect class="cls-36" x="5.6" y="25.8" width="55.11" height=".48"/><rect class="cls-125" x="5.6" y="26.28" width="55.11" height=".48"/><rect class="cls-26" x="5.6" y="26.75" width="55.11" height=".48"/><rect class="cls-59" x="5.6" y="27.23" width="55.11" height=".48"/><rect class="cls-45" x="5.6" y="27.71" width="55.11" height=".48"/><rect class="cls-45" x="5.6" y="28.18" width="55.11" height=".48"/><rect class="cls-136" x="5.6" y="28.66" width="55.11" height=".48"/><rect class="cls-89" x="5.6" y="29.14" width="55.11" height=".48"/><rect class="cls-92" x="5.6" y="29.61" width="55.11" height=".48"/><rect class="cls-87" x="5.6" y="30.09" width="55.11" height=".48"/><rect class="cls-69" x="5.6" y="30.57" width="55.11" height=".48"/><rect class="cls-70" x="5.6" y="31.04" width="55.11" height=".48"/><rect class="cls-93" x="5.6" y="31.52" width="55.11" height=".48"/><rect class="cls-75" x="5.6" y="32" width="55.11" height=".48"/><rect class="cls-99" x="5.6" y="32.47" width="55.11" height=".48"/><rect class="cls-99" x="5.6" y="32.95" width="55.11" height=".48"/><rect class="cls-10" x="5.6" y="33.43" width="55.11" height=".48"/><rect class="cls-101" x="5.6" y="33.9" width="55.11" height=".48"/><rect class="cls-83" x="5.6" y="34.38" width="55.11" height=".48"/><rect class="cls-13" x="5.6" y="34.86" width="55.11" height=".48"/><rect class="cls-60" x="5.6" y="35.33" width="55.11" height=".48"/><rect class="cls-41" x="5.6" y="35.81" width="55.11" height=".48"/><rect class="cls-27" x="5.6" y="36.29" width="55.11" height=".48"/><rect class="cls-139" x="5.6" y="36.76" width="55.11" height=".48"/><rect class="cls-88" x="5.6" y="37.24" width="55.11" height=".48"/><rect class="cls-72" x="5.6" y="37.71" width="55.11" height=".48"/><rect class="cls-95" x="5.6" y="38.19" width="55.11" height=".48"/><rect class="cls-80" x="5.6" y="38.67" width="55.11" height=".48"/><rect class="cls-51" x="5.6" y="39.14" width="55.11" height=".48"/><rect class="cls-25" x="5.6" y="39.62" width="55.11" height=".48"/><rect class="cls-7" x="5.6" y="40.1" width="55.11" height=".48"/><rect class="cls-46" x="5.6" y="40.57" width="55.11" height=".48"/><rect class="cls-115" x="5.6" y="41.05" width="55.11" height=".48"/><rect class="cls-129" x="5.6" y="41.53" width="55.11" height=".48"/><rect class="cls-109" x="5.6" y="42" width="55.11" height=".48"/><rect class="cls-66" x="5.6" y="42.48" width="55.11" height=".48"/><rect class="cls-54" x="5.6" y="42.96" width="55.11" height=".48"/><rect class="cls-127" x="5.6" y="43.43" width="55.11" height=".48"/><rect class="cls-37" x="5.6" y="43.91" width="55.11" height=".48"/><rect class="cls-68" x="5.6" y="44.39" width="55.11" height=".48"/><rect class="cls-43" x="5.6" y="44.86" width="55.11" height=".48"/><rect class="cls-108" x="5.6" y="45.34" width="55.11" height=".48"/><rect class="cls-96" x="5.6" y="45.82" width="55.11" height=".48"/><rect class="cls-100" x="5.6" y="46.29" width="55.11" height=".48"/><rect class="cls-32" x="5.6" y="46.77" width="55.11" height=".48"/><rect class="cls-86" x="5.6" y="47.25" width="55.11" height=".48"/><rect class="cls-65" x="5.6" y="47.72" width="55.11" height=".48"/><rect class="cls-85" x="5.6" y="48.2" width="55.11" height=".48"/><rect class="cls-24" x="5.6" y="48.68" width="55.11" height=".48"/><rect class="cls-134" x="5.6" y="49.15" width="55.11" height=".48"/><rect class="cls-113" x="5.6" y="49.63" width="55.11" height=".48"/><rect class="cls-90" x="5.6" y="50.11" width="55.11" height=".48"/><rect class="cls-58" x="5.6" y="50.58" width="55.11" height=".48"/><rect class="cls-1" x="5.6" y="51.06" width="55.11" height=".48"/><rect class="cls-107" x="5.6" y="51.54" width="55.11" height=".48"/><rect class="cls-16" x="5.6" y="52.01" width="55.11" height=".48"/><rect class="cls-9" x="5.6" y="52.49" width="55.11" height=".48"/><rect class="cls-47" x="5.6" y="52.97" width="55.11" height=".48"/><rect class="cls-35" x="5.6" y="53.44" width="55.11" height=".48"/><rect class="cls-126" x="5.6" y="53.92" width="55.11" height=".48"/><rect class="cls-18" x="5.6" y="54.4" width="55.11" height=".48"/><rect class="cls-71" x="5.6" y="54.87" width="55.11" height=".48"/><rect class="cls-141" x="5.6" y="55.35" width="55.11" height=".48"/><rect class="cls-132" x="5.6" y="55.83" width="55.11" height=".48"/><rect class="cls-128" x="5.6" y="56.3" width="55.11" height=".48"/><rect class="cls-14" x="5.6" y="56.78" width="55.11" height=".48"/><rect class="cls-142" x="5.6" y="57.26" width="55.11" height=".48"/><rect class="cls-106" x="5.6" y="57.73" width="55.11" height=".48"/><rect class="cls-111" x="5.6" y="58.21" width="55.11" height=".48"/><rect class="cls-81" x="5.6" y="58.69" width="55.11" height=".48"/><rect class="cls-20" x="5.6" y="59.16" width="55.11" height=".48"/><rect class="cls-12" x="5.6" y="59.64" width="55.11" height=".48"/><rect class="cls-67" x="5.6" y="60.12" width="55.11" height=".48"/><rect class="cls-117" x="5.6" y="60.59" width="55.11" height=".48"/><rect class="cls-76" x="5.6" y="61.07" width="55.11" height=".48"/><rect class="cls-82" x="5.6" y="61.54" width="55.11" height=".48"/><rect class="cls-74" x="5.6" y="62.02" width="55.11" height=".48"/><rect class="cls-63" x="5.6" y="62.5" width="55.11" height=".48"/><rect class="cls-130" x="5.6" y="62.97" width="55.11" height=".48"/><rect class="cls-48" x="5.6" y="63.45" width="55.11" height=".48"/><rect class="cls-4" x="5.6" y="63.93" width="55.11" height=".48"/><rect class="cls-105" x="5.6" y="64.4" width="55.11" height=".48"/><rect class="cls-91" x="5.6" y="64.88" width="55.11" height=".48"/><rect class="cls-29" x="5.6" y="65.36" width="55.11" height=".48"/><rect class="cls-120" x="5.6" y="65.83" width="55.11" height=".48"/><rect class="cls-133" x="5.6" y="66.31" width="55.11" height=".48"/><rect class="cls-55" x="5.6" y="66.79" width="55.11" height=".48"/><rect class="cls-39" x="5.6" y="67.26" width="55.11" height=".48"/><rect class="cls-104" x="5.6" y="67.74" width="55.11" height=".48"/><rect class="cls-122" x="5.6" y="68.22" width="55.11" height=".48"/><rect class="cls-94" x="5.6" y="68.69" width="55.11" height=".48"/><rect class="cls-57" x="5.6" y="69.17" width="55.11" height=".48"/><rect class="cls-6" x="5.6" y="69.65" width="55.11" height=".48"/><rect class="cls-64" x="5.6" y="70.12" width="55.11" height=".48"/><rect class="cls-73" x="5.6" y="70.6" width="55.11" height=".48"/><rect class="cls-138" x="5.6" y="71.08" width="55.11" height=".48"/><rect class="cls-33" x="5.6" y="71.55" width="55.11" height=".48"/><rect class="cls-21" x="5.6" y="72.03" width="55.11" height=".48"/><rect class="cls-79" x="5.6" y="72.51" width="55.11" height=".48"/><rect class="cls-123" x="5.6" y="72.98" width="55.11" height=".48"/><rect class="cls-78" x="5.6" y="73.46" width="55.11" height=".48"/><rect class="cls-97" x="5.6" y="73.94" width="55.11" height=".48"/><rect class="cls-84" x="5.6" y="74.41" width="55.11" height=".48"/><rect class="cls-19" x="5.6" y="74.89" width="55.11" height=".48"/><rect class="cls-22" x="5.6" y="75.37" width="55.11" height=".48"/><rect class="cls-61" x="5.6" y="75.84" width="55.11" height=".48"/><rect class="cls-124" x="5.6" y="76.32" width="55.11" height=".48"/><rect class="cls-140" x="5.6" y="76.8" width="55.11" height=".48"/><rect class="cls-30" x="5.6" y="77.27" width="55.11" height=".48"/><rect class="cls-34" x="5.6" y="77.75" width="55.11" height=".48"/><rect class="cls-50" x="5.6" y="78.23" width="55.11" height=".48"/><rect class="cls-44" x="5.6" y="78.7" width="55.11" height=".48"/><rect class="cls-118" x="5.6" y="79.18" width="55.11" height=".48"/><rect class="cls-137" x="5.6" y="79.66" width="55.11" height=".29"/></g><path d="m40.93,81.07c-3.15,0-5.72-2.56-5.72-5.72v-9.2c-1.4.1-2.71.1-4.11,0v9.2c0,3.15-2.56,5.72-5.72,5.72s-5.72-2.56-5.72-5.72v-12.49c-1.31-.7-2.57-1.5-3.76-2.4v6.41c0,3.15-2.56,5.72-5.72,5.72s-5.72-2.56-5.72-5.72v-27.55c0-.19.01-.37.03-.56-.02-.4-.03-.8-.03-1.21,0-15.81,12.87-28.68,28.68-28.68s28.68,12.87,28.68,28.68c0,.41-.01.81-.03,1.21.02.18.03.37.03.56v27.55c0,3.15-2.56,5.72-5.72,5.72s-5.72-2.56-5.72-5.72v-6.41c-1.19.89-2.44,1.69-3.76,2.4v12.49c0,3.15-2.56,5.72-5.72,5.72Zm-3.47-17.41v11.69c0,1.91,1.56,3.47,3.47,3.47s3.47-1.56,3.47-3.47v-13.87l.62-.31c2.09-1.05,4.03-2.37,5.76-3.92l1.87-1.68v11.3c0,1.91,1.56,3.47,3.47,3.47s3.47-1.56,3.47-3.47v-27.55c0-.13,0-.27-.02-.4v-.09s0-.09,0-.09c.02-.4.03-.79.03-1.2,0-14.57-11.86-26.43-26.43-26.43S6.73,22.99,6.73,37.56c0,.4.01.8.03,1.19v.09s0,.09,0,.09c-.02.13-.02.26-.02.39v27.55c0,1.91,1.56,3.47,3.47,3.47s3.47-1.56,3.47-3.47v-11.3l1.87,1.68c1.73,1.55,3.67,2.87,5.76,3.92l.62.31v13.87c0,1.91,1.56,3.47,3.47,3.47s3.47-1.56,3.47-3.47v-11.69l1.25.14c2.08.24,4.02.24,6.1,0l1.25-.14Z"/><path class="cls-11" d="m28.8,31.29l2.16-2.16c.97-.97.97-2.53,0-3.5-.97-.97-2.53-.97-3.5,0l-2.16,2.16-2.16-2.16c-.97-.97-2.53-.97-3.5,0-.97.97-.97,2.53,0,3.5l2.16,2.16-2.16,2.16c-.97.97-.97,2.53,0,3.5.97.97,2.53.97,3.5,0l2.16-2.16,2.16,2.16c.97.97,2.53.97,3.5,0,.97-.97.97-2.53,0-3.5l-2.16-2.16Z"/><path class="cls-11" d="m46.11,31.29l2.16-2.16c.97-.97.97-2.53,0-3.5-.97-.97-2.53-.97-3.5,0l-2.16,2.16-2.16-2.16c-.97-.97-2.53-.97-3.5,0-.97.97-.97,2.53,0,3.5l2.16,2.16-2.16,2.16c-.97.97-.97,2.53,0,3.5.97.97,2.53.97,3.5,0l2.16-2.16,2.16,2.16c.97.97,2.53.97,3.5,0,.97-.97.97-2.53,0-3.5l-2.16-2.16Z"/><path class="cls-17" d="m83.51,10.02l9.52,29.68,9.49-29.68h13.54v42.66h-10.31v-9.96l1-20.39-10.31,30.35h-6.8l-10.34-30.38,1,20.42v9.96h-10.28V10.02h13.51Z"/><path class="cls-17" d="m146.82,44.7h-14.09l-2.46,7.97h-10.99l15.64-42.66h9.67l15.76,42.66h-11.04l-2.49-7.97Zm-11.63-7.94h9.17l-4.6-14.79-4.57,14.79Z"/><path class="cls-17" d="m185.46,41.33c0-1.5-.53-2.68-1.6-3.52-1.06-.84-2.93-1.71-5.61-2.61-2.68-.9-4.86-1.77-6.56-2.61-5.53-2.71-8.29-6.45-8.29-11.19,0-2.36.69-4.45,2.07-6.25,1.38-1.81,3.33-3.21,5.84-4.22,2.52-1.01,5.35-1.51,8.5-1.51s5.82.55,8.25,1.64c2.43,1.09,4.32,2.65,5.67,4.67s2.02,4.33,2.02,6.93h-10.25c0-1.74-.53-3.09-1.6-4.04-1.06-.96-2.5-1.44-4.32-1.44s-3.29.41-4.35,1.22c-1.06.81-1.6,1.84-1.6,3.09,0,1.09.59,2.08,1.76,2.97,1.17.89,3.23,1.81,6.18,2.75,2.95.95,5.37,1.97,7.27,3.06,4.61,2.66,6.91,6.32,6.91,10.99,0,3.73-1.41,6.66-4.22,8.79s-6.67,3.19-11.57,3.19c-3.46,0-6.59-.62-9.39-1.86s-4.91-2.94-6.33-5.1-2.12-4.64-2.12-7.46h10.31c0,2.29.59,3.97,1.77,5.05,1.18,1.08,3.1,1.63,5.76,1.63,1.7,0,3.04-.37,4.03-1.1.99-.73,1.48-1.76,1.48-3.09Z"/><path class="cls-17" d="m234.51,17.96h-12.8v34.72h-10.28V17.96h-12.57v-7.94h35.65v7.94Z"/><path class="cls-17" d="m265.3,34.57h-16.17v10.2h19.1v7.91h-29.38V10.02h29.44v7.94h-19.16v8.99h16.17v7.62Z"/><path class="cls-17" d="m288.27,37.58h-5.57v15.09h-10.28V10.02h16.79c5.06,0,9.01,1.12,11.87,3.37,2.85,2.24,4.28,5.41,4.28,9.51,0,2.97-.6,5.42-1.8,7.38s-3.08,3.53-5.64,4.74l8.91,17.22v.44h-11.02l-7.53-15.09Zm-5.57-7.91h6.5c1.95,0,3.42-.51,4.41-1.54.99-1.03,1.48-2.46,1.48-4.3s-.5-3.28-1.49-4.33-2.46-1.57-4.39-1.57h-6.5v11.75Z"/><rect class="cls-5" x="90.06" y="57.52" width="195" height="23" rx="3.12" ry="3.12"/><path class="cls-11" d="m114.13,69.49c0,1.67-.29,3.14-.87,4.4s-1.4,2.23-2.48,2.91-2.31,1.01-3.71,1.01-2.62-.34-3.7-1.01-1.92-1.64-2.51-2.89-.89-2.69-.9-4.32v-.96c0-1.66.29-3.13.88-4.41s1.42-2.25,2.5-2.92,2.31-1.01,3.7-1.01,2.62.33,3.7,1,1.9,1.63,2.49,2.88.88,2.71.89,4.38v.95Zm-2.96-.89c0-1.89-.36-3.34-1.07-4.35s-1.73-1.51-3.04-1.51-2.28.5-3.01,1.51-1.09,2.42-1.11,4.26v.98c0,1.88.37,3.32,1.1,4.35s1.74,1.54,3.04,1.54,2.32-.5,3.03-1.5,1.06-2.46,1.06-4.38v-.89Z"/><path class="cls-11" d="m126.92,70.34h-6.87v7.23h-2.96v-17.06h10.84v2.39h-7.88v5.07h6.87v2.37Z"/><path class="cls-11" d="m149.27,72.02c-.17,1.82-.84,3.24-2.02,4.26s-2.73,1.53-4.68,1.53c-1.36,0-2.56-.32-3.59-.97s-1.83-1.56-2.4-2.75-.86-2.57-.88-4.14v-1.59c0-1.61.29-3.03.86-4.25s1.39-2.17,2.46-2.84,2.3-1,3.7-1c1.88,0,3.4.51,4.55,1.53s1.82,2.46,2,4.33h-2.95c-.14-1.23-.5-2.11-1.07-2.65s-1.42-.81-2.53-.81c-1.29,0-2.28.47-2.97,1.41s-1.04,2.33-1.06,4.15v1.51c0,1.84.33,3.25.99,4.22s1.63,1.45,2.9,1.45c1.16,0,2.04-.26,2.62-.79s.96-1.39,1.11-2.61h2.95Z"/><path class="cls-11" d="m165.53,69.49c0,1.67-.29,3.14-.87,4.4s-1.4,2.23-2.48,2.91-2.31,1.01-3.71,1.01-2.62-.34-3.7-1.01-1.92-1.64-2.51-2.89-.89-2.69-.9-4.32v-.96c0-1.66.29-3.13.88-4.41s1.42-2.25,2.5-2.92,2.31-1.01,3.7-1.01,2.62.33,3.7,1,1.9,1.63,2.49,2.88.88,2.71.89,4.38v.95Zm-2.96-.89c0-1.89-.36-3.34-1.07-4.35s-1.73-1.51-3.04-1.51-2.28.5-3.01,1.51-1.09,2.42-1.11,4.26v.98c0,1.88.37,3.32,1.1,4.35s1.74,1.54,3.04,1.54,2.32-.5,3.03-1.5,1.06-2.46,1.06-4.38v-.89Z"/><path class="cls-11" d="m171.45,75.21h7.75v2.37h-10.71v-17.06h2.96v14.7Z"/><path class="cls-11" d="m184.43,75.21h7.75v2.37h-10.71v-17.06h2.96v14.7Z"/><path class="cls-11" d="m204.43,69.96h-7.01v5.25h8.19v2.37h-11.16v-17.06h11.07v2.39h-8.11v4.71h7.01v2.34Z"/><path class="cls-11" d="m221.04,72.02c-.17,1.82-.84,3.24-2.02,4.26s-2.73,1.53-4.68,1.53c-1.36,0-2.56-.32-3.59-.97s-1.83-1.56-2.4-2.75-.86-2.57-.88-4.14v-1.59c0-1.61.29-3.03.86-4.25s1.39-2.17,2.46-2.84,2.3-1,3.7-1c1.88,0,3.4.51,4.55,1.53s1.82,2.46,2,4.33h-2.95c-.14-1.23-.5-2.11-1.07-2.65s-1.42-.81-2.53-.81c-1.29,0-2.28.47-2.97,1.41s-1.04,2.33-1.06,4.15v1.51c0,1.84.33,3.25.99,4.22s1.63,1.45,2.9,1.45c1.16,0,2.04-.26,2.62-.79s.96-1.39,1.11-2.61h2.95Z"/><path class="cls-11" d="m235.68,62.9h-5.32v14.67h-2.94v-14.67h-5.27v-2.39h13.54v2.39Z"/><path class="cls-11" d="m241.05,77.57h-2.95v-17.06h2.95v17.06Z"/><path class="cls-11" d="m258.23,77.57h-2.96l-7.61-12.11v12.11h-2.96v-17.06h2.96l7.63,12.15v-12.15h2.94v17.06Z"/><path class="cls-11" d="m274.81,75.36c-.62.8-1.47,1.41-2.57,1.83s-2.34.62-3.73.62-2.7-.32-3.8-.97-1.95-1.58-2.55-2.78-.91-2.62-.93-4.22v-1.34c0-2.58.62-4.59,1.85-6.04s2.96-2.17,5.17-2.17c1.9,0,3.41.47,4.52,1.41s1.79,2.29,2.02,4.06h-2.91c-.33-2.05-1.52-3.08-3.57-3.08-1.33,0-2.34.48-3.03,1.43s-1.05,2.36-1.07,4.21v1.31c0,1.84.39,3.27,1.17,4.29.78,1.02,1.86,1.53,3.24,1.53,1.52,0,2.59-.34,3.23-1.03v-3.34h-3.52v-2.25h6.47v6.54Z"/></svg>