<?xml version="1.0" encoding="UTF-8"?>
<svg id="Capa_1" data-name="Capa 1" xmlns="http://www.w3.org/2000/svg" xmlns:xlink="http://www.w3.org/1999/xlink" viewBox="0 0 238 85">
  <defs>
    <style>
      .cls-1 {
        fill: #55b848;
      }

      .cls-2 {
        fill: #9eda4b;
      }

      .cls-3 {
        fill: #9cd94b;
      }

      .cls-4 {
        fill: #33a947;
      }

      .cls-5 {
        fill: #23a146;
      }

      .cls-6 {
        fill: #6fc449;
      }

      .cls-7 {
        fill: #96d64a;
      }

      .cls-8 {
        fill: #52b748;
      }

      .cls-9 {
        fill: #7dca4a;
      }

      .cls-10 {
        fill: #fff;
      }

      .cls-11 {
        fill: #3fae47;
      }

      .cls-12 {
        fill: #7ac949;
      }

      .cls-13 {
        fill: #46b148;
      }

      .cls-14 {
        fill: #91d44a;
      }

      .cls-15 {
        fill: #53b748;
      }

      .cls-16 {
        fill: #139a46;
      }

      .cls-17 {
        fill: #40af47;
      }

      .cls-18 {
        fill: #1c9e46;
      }

      .cls-19 {
        fill: #129946;
      }

      .cls-20 {
        fill: #99d74b;
      }

      .cls-21 {
        fill: #5bbb48;
      }

      .cls-22 {
        fill: #70c449;
      }

      .cls-23 {
        fill: #89d04a;
      }

      .cls-24 {
        fill: #77c849;
      }

      .cls-25 {
        fill: #9fda4b;
      }

      .cls-26 {
        fill: #2fa747;
      }

      .cls-27 {
        fill: #0c9645;
      }

      .cls-28 {
        fill: #98d74b;
      }

      .cls-29 {
        fill: #60bd48;
      }

      .cls-30 {
        fill: #1d9e46;
      }

      .cls-31 {
        fill: #0a9645;
      }

      .cls-32 {
        fill: #4fb548;
      }

      .cls-33 {
        fill: #8bd14a;
      }

      .cls-34 {
        fill: #66c049;
      }

      .cls-35 {
        fill: #94d54a;
      }

      .cls-36 {
        fill: #2aa447;
      }

      .cls-37 {
        fill: #93d54a;
      }

      .cls-38 {
        fill: #78c849;
      }

      .cls-39 {
        fill: #8dd24a;
      }

      .cls-40 {
        fill: #64bf49;
      }

      .cls-41 {
        fill: #079445;
      }

      .cls-42 {
        fill: #87cf4a;
      }

      .cls-43 {
        fill: #6ec449;
      }

      .cls-44 {
        fill: #50b648;
      }

      .cls-45 {
        fill: #34a947;
      }

      .cls-46 {
        fill: #9dd94b;
      }

      .cls-47 {
        fill: #099545;
      }

      .cls-48 {
        fill: #71c549;
      }

      .cls-49 {
        fill: #95d64a;
      }

      .cls-50 {
        fill: #92d44a;
      }

      .cls-51 {
        fill: #68c149;
      }

      .cls-52 {
        fill: #2ba547;
      }

      .cls-53 {
        fill: #97d64a;
      }

      .cls-54 {
        fill: #24a246;
      }

      .cls-55 {
        fill: #56b948;
      }

      .cls-56 {
        fill: #88d04a;
      }

      .cls-57 {
        fill: #79c949;
      }

      .cls-58 {
        fill: #109846;
      }

      .cls-59 {
        fill: #97d74b;
      }

      .cls-60 {
        fill: #37aa47;
      }

      .cls-61 {
        fill: #21a046;
      }

      .cls-62 {
        fill: #5dbc48;
      }

      .cls-63 {
        fill: #69c249;
      }

      .cls-64 {
        fill: #3ead47;
      }

      .cls-65 {
        fill: #65c049;
      }

      .cls-66 {
        fill: #82cd4a;
      }

      .cls-67 {
        fill: #81cd4a;
      }

      .cls-68 {
        fill: #4bb448;
      }

      .cls-69 {
        fill: #74c649;
      }

      .cls-70 {
        fill: #20a046;
      }

      .cls-71 {
        fill: #38ab47;
      }

      .cls-72 {
        fill: #7fcc4a;
      }

      .cls-73 {
        fill: #3bac47;
      }

      .cls-74 {
        fill: #9bd84b;
      }

      .cls-75 {
        fill: #179c46;
      }

      .cls-76 {
        fill: #1a9d46;
      }

      .cls-77 {
        fill: #72c549;
      }

      .cls-78 {
        fill: #41af47;
      }

      .cls-79 {
        fill: #3aac47;
      }

      .cls-80 {
        fill: #7bca49;
      }

      .cls-81 {
        fill: #159a46;
      }

      .cls-82 {
        fill: #5cbb48;
      }

      .cls-83 {
        fill: #5ebc48;
      }

      .cls-84 {
        fill: #83cd4a;
      }

      .cls-85 {
        fill: #75c749;
      }

      .cls-86 {
        fill: #85ce4a;
      }

      .cls-87 {
        fill: #57b948;
      }

      .cls-88 {
        fill: #30a747;
      }

      .cls-89 {
        fill: #84ce4a;
      }

      .cls-90 {
        fill: #80cc4a;
      }

      .cls-91 {
        fill: #26a246;
      }

      .cls-92 {
        fill: #73c649;
      }

      .cls-93 {
        fill: #4db448;
      }

      .cls-94 {
        fill: #62be49;
      }

      .cls-95 {
        fill: #169b46;
      }

      .cls-96 {
        clip-path: url(#clippath);
      }

      .cls-97 {
        fill: #7ecb4a;
      }

      .cls-98 {
        fill: #61be49;
      }

      .cls-99 {
        fill: #7cca49;
      }

      .cls-100 {
        fill: #a0db4b;
      }

      .cls-101 {
        fill: #95d54a;
      }

      .cls-102 {
        fill: #28a446;
      }

      .cls-103 {
        fill: #32a847;
      }

      .cls-104 {
        fill: #44b047;
      }

      .cls-105 {
        fill: #54b848;
      }

      .cls-106 {
        fill: #63bf49;
      }

      .cls-107 {
        fill: #6ac249;
      }

      .cls-108 {
        fill: none;
      }

      .cls-109 {
        fill: #43b047;
      }

      .cls-110 {
        fill: #90d34a;
      }

      .cls-111 {
        fill: #59ba48;
      }

      .cls-112 {
        fill: #8fd34a;
      }

      .cls-113 {
        fill: #6dc349;
      }

      .cls-114 {
        fill: #99d84b;
      }

      .cls-115 {
        fill: #3cad47;
      }

      .cls-116 {
        fill: #069445;
      }

      .cls-117 {
        fill: #8ed24a;
      }

      .cls-118 {
        fill: #2ea647;
      }

      .cls-119 {
        fill: #8cd24a;
      }

      .cls-120 {
        fill: #27a346;
      }

      .cls-121 {
        fill: #199c46;
      }

      .cls-122 {
        fill: #0f9846;
      }

      .cls-123 {
        fill: #8ad14a;
      }

      .cls-124 {
        fill: #4eb548;
      }

      .cls-125 {
        fill: #67c149;
      }

      .cls-126 {
        fill: #48b248;
      }

      .cls-127 {
        fill: #6cc349;
      }

      .cls-128 {
        fill: #36aa47;
      }

      .cls-129 {
        fill: #9ad84b;
      }

      .cls-130 {
        fill: #49b348;
      }

      .cls-131 {
        fill: #2ca547;
      }

      .cls-132 {
        fill: #5aba48;
      }

      .cls-133 {
        fill: #a1db4b;
      }

      .cls-134 {
        fill: #86cf4a;
      }

      .cls-135 {
        fill: #049345;
      }

      .cls-136 {
        fill: #1f9f46;
      }

      .cls-137 {
        fill: #76c749;
      }

      .cls-138 {
        fill: #0d9745;
      }

      .cls-139 {
        fill: #4ab348;
      }

      .cls-140 {
        fill: #45b148;
      }

      .cls-141 {
        fill: #8cd14a;
      }
    </style>
    <clipPath id="clippath">
      <path class="cls-108" d="m158.19,34.05c0-16.27-13.19-29.46-29.46-29.46s-29.46,13.19-29.46,29.46c0,.45.01.89.03,1.33-.02.18-.03.37-.03.56v29.46c0,2.71,2.2,4.91,4.91,4.91s4.91-2.2,4.91-4.91v-9.4c1.93,1.73,4.09,3.2,6.42,4.37v14.09c0,2.71,2.2,4.91,4.91,4.91s4.91-2.2,4.91-4.91v-11.16c1.12.13,2.25.2,3.4.2s2.28-.07,3.4-.2v11.16c0,2.71,2.2,4.91,4.91,4.91s4.91-2.2,4.91-4.91v-14.09c2.33-1.17,4.49-2.65,6.42-4.37v9.4c0,2.71,2.2,4.91,4.91,4.91s4.91-2.2,4.91-4.91v-29.46c0-.19-.01-.37-.03-.56.02-.44.03-.89.03-1.33Z"/>
    </clipPath>
  </defs>
  <path d="m30.96,3.43l17.46,54.41L65.81,3.43h24.81v78.2h-18.91v-18.26l1.83-37.38-18.91,55.64h-12.46L23.22,25.93l1.83,37.44v18.26H6.19V3.43h24.76Z"/>
  <path d="m231.64,55.15c-.25,5.44-1.72,10.25-4.4,14.42s-6.45,7.4-11.31,9.69c-4.85,2.29-10.39,3.44-16.62,3.44-10.28,0-18.37-3.35-24.28-10.04-5.91-6.7-8.86-16.15-8.86-28.36v-3.87c0-7.66,1.33-14.37,4-20.12,2.67-5.75,6.51-10.19,11.52-13.32,5.01-3.13,10.81-4.7,17.4-4.7,9.49,0,17.12,2.5,22.88,7.49,5.76,5,9.04,11.88,9.83,20.65h-18.8c-.14-4.76-1.34-8.18-3.6-10.26-2.26-2.08-5.69-3.12-10.31-3.12s-8.13,1.75-10.31,5.26c-2.18,3.51-3.33,9.11-3.44,16.81v5.53c0,8.34,1.05,14.31,3.14,17.89,2.09,3.58,5.7,5.37,10.82,5.37,4.33,0,7.64-1.02,9.94-3.06,2.29-2.04,3.51-5.28,3.65-9.72h18.75Z"/>
  <g>
    <g>
      <g class="cls-96">
        <rect class="cls-133" x="99.26" y="4.59" width="58.93" height=".07"/>
        <rect class="cls-100" x="99.26" y="4.66" width="58.93" height=".51"/>
        <rect class="cls-100" x="99.26" y="5.17" width="58.93" height=".51"/>
        <rect class="cls-25" x="99.26" y="5.68" width="58.93" height=".51"/>
        <rect class="cls-25" x="99.26" y="6.19" width="58.93" height=".51"/>
        <rect class="cls-2" x="99.26" y="6.7" width="58.93" height=".51"/>
        <rect class="cls-2" x="99.26" y="7.21" width="58.93" height=".51"/>
        <rect class="cls-46" x="99.26" y="7.71" width="58.93" height=".51"/>
        <rect class="cls-46" x="99.26" y="8.22" width="58.93" height=".51"/>
        <rect class="cls-3" x="99.26" y="8.73" width="58.93" height=".51"/>
        <rect class="cls-3" x="99.26" y="9.24" width="58.93" height=".51"/>
        <rect class="cls-74" x="99.26" y="9.75" width="58.93" height=".51"/>
        <rect class="cls-74" x="99.26" y="10.26" width="58.93" height=".51"/>
        <rect class="cls-129" x="99.26" y="10.77" width="58.93" height=".51"/>
        <rect class="cls-114" x="99.26" y="11.28" width="58.93" height=".51"/>
        <rect class="cls-20" x="99.26" y="11.79" width="58.93" height=".51"/>
        <rect class="cls-28" x="99.26" y="12.3" width="58.93" height=".51"/>
        <rect class="cls-59" x="99.26" y="12.81" width="58.93" height=".51"/>
        <rect class="cls-53" x="99.26" y="13.32" width="58.93" height=".51"/>
        <rect class="cls-7" x="99.26" y="13.83" width="58.93" height=".51"/>
        <rect class="cls-49" x="99.26" y="14.34" width="58.93" height=".51"/>
        <rect class="cls-101" x="99.26" y="14.85" width="58.93" height=".51"/>
        <rect class="cls-35" x="99.26" y="15.36" width="58.93" height=".51"/>
        <rect class="cls-37" x="99.26" y="15.87" width="58.93" height=".51"/>
        <rect class="cls-50" x="99.26" y="16.38" width="58.93" height=".51"/>
        <rect class="cls-50" x="99.26" y="16.89" width="58.93" height=".51"/>
        <rect class="cls-14" x="99.26" y="17.4" width="58.93" height=".51"/>
        <rect class="cls-110" x="99.26" y="17.91" width="58.93" height=".51"/>
        <rect class="cls-112" x="99.26" y="18.42" width="58.93" height=".51"/>
        <rect class="cls-112" x="99.26" y="18.93" width="58.93" height=".51"/>
        <rect class="cls-117" x="99.26" y="19.44" width="58.93" height=".51"/>
        <rect class="cls-39" x="99.26" y="19.95" width="58.93" height=".51"/>
        <rect class="cls-119" x="99.26" y="20.46" width="58.93" height=".51"/>
        <rect class="cls-141" x="99.26" y="20.97" width="58.93" height=".51"/>
        <rect class="cls-33" x="99.26" y="21.47" width="58.93" height=".51"/>
        <rect class="cls-123" x="99.26" y="21.98" width="58.93" height=".51"/>
        <rect class="cls-23" x="99.26" y="22.49" width="58.93" height=".51"/>
        <rect class="cls-56" x="99.26" y="23" width="58.93" height=".51"/>
        <rect class="cls-42" x="99.26" y="23.51" width="58.93" height=".51"/>
        <rect class="cls-42" x="99.26" y="24.02" width="58.93" height=".51"/>
        <rect class="cls-134" x="99.26" y="24.53" width="58.93" height=".51"/>
        <rect class="cls-86" x="99.26" y="25.04" width="58.93" height=".51"/>
        <rect class="cls-89" x="99.26" y="25.55" width="58.93" height=".51"/>
        <rect class="cls-84" x="99.26" y="26.06" width="58.93" height=".51"/>
        <rect class="cls-66" x="99.26" y="26.57" width="58.93" height=".51"/>
        <rect class="cls-67" x="99.26" y="27.08" width="58.93" height=".51"/>
        <rect class="cls-90" x="99.26" y="27.59" width="58.93" height=".51"/>
        <rect class="cls-72" x="99.26" y="28.1" width="58.93" height=".51"/>
        <rect class="cls-97" x="99.26" y="28.61" width="58.93" height=".51"/>
        <rect class="cls-97" x="99.26" y="29.12" width="58.93" height=".51"/>
        <rect class="cls-9" x="99.26" y="29.63" width="58.93" height=".51"/>
        <rect class="cls-99" x="99.26" y="30.14" width="58.93" height=".51"/>
        <rect class="cls-80" x="99.26" y="30.65" width="58.93" height=".51"/>
        <rect class="cls-12" x="99.26" y="31.16" width="58.93" height=".51"/>
        <rect class="cls-57" x="99.26" y="31.67" width="58.93" height=".51"/>
        <rect class="cls-38" x="99.26" y="32.18" width="58.93" height=".51"/>
        <rect class="cls-24" x="99.26" y="32.69" width="58.93" height=".51"/>
        <rect class="cls-137" x="99.26" y="33.2" width="58.93" height=".51"/>
        <rect class="cls-85" x="99.26" y="33.71" width="58.93" height=".51"/>
        <rect class="cls-69" x="99.26" y="34.22" width="58.93" height=".51"/>
        <rect class="cls-92" x="99.26" y="34.72" width="58.93" height=".51"/>
        <rect class="cls-77" x="99.26" y="35.23" width="58.93" height=".51"/>
        <rect class="cls-48" x="99.26" y="35.74" width="58.93" height=".51"/>
        <rect class="cls-22" x="99.26" y="36.25" width="58.93" height=".51"/>
        <rect class="cls-6" x="99.26" y="36.76" width="58.93" height=".51"/>
        <rect class="cls-43" x="99.26" y="37.27" width="58.93" height=".51"/>
        <rect class="cls-113" x="99.26" y="37.78" width="58.93" height=".51"/>
        <rect class="cls-127" x="99.26" y="38.29" width="58.93" height=".51"/>
        <rect class="cls-107" x="99.26" y="38.8" width="58.93" height=".51"/>
        <rect class="cls-63" x="99.26" y="39.31" width="58.93" height=".51"/>
        <rect class="cls-51" x="99.26" y="39.82" width="58.93" height=".51"/>
        <rect class="cls-125" x="99.26" y="40.33" width="58.93" height=".51"/>
        <rect class="cls-34" x="99.26" y="40.84" width="58.93" height=".51"/>
        <rect class="cls-65" x="99.26" y="41.35" width="58.93" height=".51"/>
        <rect class="cls-40" x="99.26" y="41.86" width="58.93" height=".51"/>
        <rect class="cls-106" x="99.26" y="42.37" width="58.93" height=".51"/>
        <rect class="cls-94" x="99.26" y="42.88" width="58.93" height=".51"/>
        <rect class="cls-98" x="99.26" y="43.39" width="58.93" height=".51"/>
        <rect class="cls-29" x="99.26" y="43.9" width="58.93" height=".51"/>
        <rect class="cls-83" x="99.26" y="44.41" width="58.93" height=".51"/>
        <rect class="cls-62" x="99.26" y="44.92" width="58.93" height=".51"/>
        <rect class="cls-82" x="99.26" y="45.43" width="58.93" height=".51"/>
        <rect class="cls-21" x="99.26" y="45.94" width="58.93" height=".51"/>
        <rect class="cls-132" x="99.26" y="46.45" width="58.93" height=".51"/>
        <rect class="cls-111" x="99.26" y="46.96" width="58.93" height=".51"/>
        <rect class="cls-87" x="99.26" y="47.47" width="58.93" height=".51"/>
        <rect class="cls-55" x="99.26" y="47.97" width="58.93" height=".51"/>
        <rect class="cls-1" x="99.26" y="48.48" width="58.93" height=".51"/>
        <rect class="cls-105" x="99.26" y="48.99" width="58.93" height=".51"/>
        <rect class="cls-15" x="99.26" y="49.5" width="58.93" height=".51"/>
        <rect class="cls-8" x="99.26" y="50.01" width="58.93" height=".51"/>
        <rect class="cls-44" x="99.26" y="50.52" width="58.93" height=".51"/>
        <rect class="cls-32" x="99.26" y="51.03" width="58.93" height=".51"/>
        <rect class="cls-124" x="99.26" y="51.54" width="58.93" height=".51"/>
        <rect class="cls-93" x="99.26" y="52.05" width="58.93" height=".51"/>
        <rect class="cls-68" x="99.26" y="52.56" width="58.93" height=".51"/>
        <rect class="cls-139" x="99.26" y="53.07" width="58.93" height=".51"/>
        <rect class="cls-130" x="99.26" y="53.58" width="58.93" height=".51"/>
        <rect class="cls-126" x="99.26" y="54.09" width="58.93" height=".51"/>
        <rect class="cls-13" x="99.26" y="54.6" width="58.93" height=".51"/>
        <rect class="cls-140" x="99.26" y="55.11" width="58.93" height=".51"/>
        <rect class="cls-104" x="99.26" y="55.62" width="58.93" height=".51"/>
        <rect class="cls-109" x="99.26" y="56.13" width="58.93" height=".51"/>
        <rect class="cls-78" x="99.26" y="56.64" width="58.93" height=".51"/>
        <rect class="cls-17" x="99.26" y="57.15" width="58.93" height=".51"/>
        <rect class="cls-11" x="99.26" y="57.66" width="58.93" height=".51"/>
        <rect class="cls-64" x="99.26" y="58.17" width="58.93" height=".51"/>
        <rect class="cls-115" x="99.26" y="58.68" width="58.93" height=".51"/>
        <rect class="cls-73" x="99.26" y="59.19" width="58.93" height=".51"/>
        <rect class="cls-79" x="99.26" y="59.7" width="58.93" height=".51"/>
        <rect class="cls-71" x="99.26" y="60.21" width="58.93" height=".51"/>
        <rect class="cls-60" x="99.26" y="60.72" width="58.93" height=".51"/>
        <rect class="cls-128" x="99.26" y="61.23" width="58.93" height=".51"/>
        <rect class="cls-45" x="99.26" y="61.73" width="58.93" height=".51"/>
        <rect class="cls-4" x="99.26" y="62.24" width="58.93" height=".51"/>
        <rect class="cls-103" x="99.26" y="62.75" width="58.93" height=".51"/>
        <rect class="cls-88" x="99.26" y="63.26" width="58.93" height=".51"/>
        <rect class="cls-26" x="99.26" y="63.77" width="58.93" height=".51"/>
        <rect class="cls-118" x="99.26" y="64.28" width="58.93" height=".51"/>
        <rect class="cls-131" x="99.26" y="64.79" width="58.93" height=".51"/>
        <rect class="cls-52" x="99.26" y="65.3" width="58.93" height=".51"/>
        <rect class="cls-36" x="99.26" y="65.81" width="58.93" height=".51"/>
        <rect class="cls-102" x="99.26" y="66.32" width="58.93" height=".51"/>
        <rect class="cls-120" x="99.26" y="66.83" width="58.93" height=".51"/>
        <rect class="cls-91" x="99.26" y="67.34" width="58.93" height=".51"/>
        <rect class="cls-54" x="99.26" y="67.85" width="58.93" height=".51"/>
        <rect class="cls-5" x="99.26" y="68.36" width="58.93" height=".51"/>
        <rect class="cls-61" x="99.26" y="68.87" width="58.93" height=".51"/>
        <rect class="cls-70" x="99.26" y="69.38" width="58.93" height=".51"/>
        <rect class="cls-136" x="99.26" y="69.89" width="58.93" height=".51"/>
        <rect class="cls-30" x="99.26" y="70.4" width="58.93" height=".51"/>
        <rect class="cls-18" x="99.26" y="70.91" width="58.93" height=".51"/>
        <rect class="cls-76" x="99.26" y="71.42" width="58.93" height=".51"/>
        <rect class="cls-121" x="99.26" y="71.93" width="58.93" height=".51"/>
        <rect class="cls-75" x="99.26" y="72.44" width="58.93" height=".51"/>
        <rect class="cls-95" x="99.26" y="72.95" width="58.93" height=".51"/>
        <rect class="cls-81" x="99.26" y="73.46" width="58.93" height=".51"/>
        <rect class="cls-16" x="99.26" y="73.97" width="58.93" height=".51"/>
        <rect class="cls-19" x="99.26" y="74.48" width="58.93" height=".51"/>
        <rect class="cls-58" x="99.26" y="74.98" width="58.93" height=".51"/>
        <rect class="cls-122" x="99.26" y="75.49" width="58.93" height=".51"/>
        <rect class="cls-138" x="99.26" y="76" width="58.93" height=".51"/>
        <rect class="cls-27" x="99.26" y="76.51" width="58.93" height=".51"/>
        <rect class="cls-31" x="99.26" y="77.02" width="58.93" height=".51"/>
        <rect class="cls-47" x="99.26" y="77.53" width="58.93" height=".51"/>
        <rect class="cls-41" x="99.26" y="78.04" width="58.93" height=".51"/>
        <rect class="cls-116" x="99.26" y="78.55" width="58.93" height=".51"/>
        <rect class="cls-135" x="99.26" y="79.06" width="58.93" height=".31"/>
      </g>
      <path d="m137.03,81.48c-3.87,0-7.02-3.15-7.02-7.02v-8.88c-.87.04-1.72.04-2.59,0v8.88c0,3.87-3.15,7.02-7.02,7.02s-7.02-3.15-7.02-7.02v-12.82c-.76-.42-1.49-.87-2.21-1.35v5.11c0,3.87-3.15,7.02-7.01,7.02s-7.02-3.15-7.02-7.02v-29.46c0-.21.01-.42.03-.62-.02-.42-.03-.84-.03-1.27,0-17.41,14.16-31.57,31.57-31.57s31.57,14.16,31.57,31.57c0,.43-.01.85-.03,1.27.02.2.03.41.03.62v29.46c0,3.87-3.15,7.02-7.02,7.02s-7.01-3.15-7.01-7.02v-5.11c-.72.48-1.46.93-2.21,1.35v12.82c0,3.87-3.15,7.02-7.02,7.02Zm-2.81-20.53v13.52c0,1.55,1.26,2.81,2.81,2.81s2.81-1.26,2.81-2.81v-15.39l1.16-.58c2.16-1.09,4.17-2.46,5.96-4.06l3.51-3.14v14.11c0,1.55,1.26,2.81,2.81,2.81s2.81-1.26,2.81-2.81v-29.46c0-.11,0-.22-.02-.32l-.02-.16v-.16c.03-.41.04-.82.04-1.24,0-15.09-12.27-27.36-27.36-27.36s-27.36,12.27-27.36,27.36c0,.42.01.83.03,1.24v.16s-.01.16-.01.16c-.01.11-.02.21-.02.32v29.46c0,1.55,1.26,2.81,2.81,2.81s2.81-1.26,2.81-2.81v-14.11l3.51,3.14c1.8,1.61,3.8,2.97,5.96,4.06l1.16.58v15.39c0,1.55,1.26,2.81,2.81,2.81s2.81-1.26,2.81-2.81v-13.52l2.34.27c2.16.25,4.15.25,6.32,0l2.34-.27Z"/>
    </g>
    <path class="cls-10" d="m124.06,27.34l2.3-2.3c1.03-1.03,1.03-2.71,0-3.74-1.03-1.03-2.71-1.03-3.74,0l-2.3,2.3-2.3-2.3c-1.03-1.03-2.71-1.03-3.74,0-1.03,1.03-1.03,2.71,0,3.74l2.3,2.3-2.3,2.3c-1.03,1.03-1.03,2.71,0,3.74,1.03,1.03,2.71,1.03,3.74,0l2.3-2.3,2.3,2.3c1.03,1.03,2.71,1.03,3.74,0,1.03-1.03,1.03-2.71,0-3.74l-2.3-2.3Z"/>
    <path class="cls-10" d="m142.57,27.34l2.3-2.3c1.03-1.03,1.03-2.71,0-3.74-1.03-1.03-2.71-1.03-3.74,0l-2.3,2.3-2.3-2.3c-1.03-1.03-2.71-1.03-3.74,0-1.03,1.03-1.03,2.71,0,3.74l2.3,2.3-2.3,2.3c-1.03,1.03-1.03,2.71,0,3.74,1.03,1.03,2.71,1.03,3.74,0l2.3-2.3,2.3,2.3c1.03,1.03,2.71,1.03,3.74,0,1.03-1.03,1.03-2.71,0-3.74l-2.3-2.3Z"/>
  </g>
</svg>