<?xml version="1.0" encoding="UTF-8"?>
<svg id="Capa_1" data-name="Capa 1" xmlns="http://www.w3.org/2000/svg" viewBox="0 0 249 85">
  <defs>
    <style>
      .cls-1 {
        fill: #faaf3b;
      }

      .cls-2 {
        fill: #fff;
      }

      .cls-3 {
        fill: #39b44a;
        stroke: #000;
        stroke-miterlimit: 10;
      }
    </style>
  </defs>
  <rect class="cls-1" x="23.75" y="56.31" width="201.5" height="23"/>
  <g>
    <path class="cls-3" d="m20.45,8.81l9.52,29.68,9.49-29.68h13.54v42.66h-10.31v-9.96l1-20.39-10.31,30.35h-6.8l-10.34-30.38,1,20.42v9.96H6.95V8.81h13.51Z"/>
    <path class="cls-3" d="m83.76,43.49h-14.09l-2.46,7.97h-10.99l15.64-42.66h9.67l15.76,42.66h-11.04l-2.49-7.97Zm-11.63-7.94h9.17l-4.6-14.79-4.57,14.79Z"/>
    <path class="cls-3" d="m122.41,40.12c0-1.5-.53-2.68-1.6-3.52s-2.93-1.71-5.61-2.61-4.86-1.77-6.56-2.61c-5.53-2.71-8.29-6.45-8.29-11.19,0-2.36.69-4.45,2.07-6.25s3.33-3.21,5.84-4.22,5.35-1.51,8.5-1.51,5.82.55,8.25,1.64,4.32,2.65,5.67,4.67,2.02,4.33,2.02,6.93h-10.25c0-1.74-.53-3.09-1.6-4.04s-2.5-1.44-4.32-1.44-3.29.41-4.35,1.22-1.6,1.84-1.6,3.09c0,1.09.59,2.08,1.76,2.97s3.23,1.81,6.18,2.75,5.37,1.97,7.27,3.06c4.61,2.66,6.91,6.32,6.91,10.99,0,3.73-1.41,6.66-4.22,8.79s-6.67,3.19-11.57,3.19c-3.46,0-6.59-.62-9.39-1.86s-4.91-2.94-6.33-5.1-2.12-4.64-2.12-7.46h10.31c0,2.29.59,3.97,1.77,5.05s3.1,1.63,5.76,1.63c1.7,0,3.04-.37,4.03-1.1s1.48-1.76,1.48-3.09Z"/>
    <path class="cls-3" d="m171.45,16.75h-12.8v34.72h-10.28V16.75h-12.57v-7.94h35.65v7.94Z"/>
    <path class="cls-3" d="m202.24,33.36h-16.17v10.2h19.1v7.91h-29.38V8.81h29.44v7.94h-19.16v8.99h16.17v7.62Z"/>
    <path class="cls-3" d="m225.21,36.37h-5.57v15.09h-10.28V8.81h16.79c5.06,0,9.01,1.12,11.87,3.37,2.85,2.24,4.28,5.41,4.28,9.51,0,2.97-.6,5.42-1.8,7.38s-3.08,3.53-5.64,4.74l8.91,17.22v.44h-11.02l-7.53-15.09Zm-5.57-7.91h6.5c1.95,0,3.42-.51,4.41-1.54s1.48-2.46,1.48-4.3-.5-3.29-1.49-4.33c-1-1.05-2.46-1.57-4.39-1.57h-6.5v11.75Z"/>
  </g>
  <g>
    <path class="cls-2" d="m51.08,68.28c0,1.67-.29,3.14-.87,4.4s-1.4,2.23-2.48,2.91-2.31,1.01-3.71,1.01-2.62-.34-3.7-1.01-1.92-1.64-2.51-2.89-.89-2.69-.9-4.32v-.96c0-1.66.29-3.13.88-4.41s1.42-2.25,2.5-2.92,2.31-1.01,3.7-1.01,2.62.33,3.7,1,1.9,1.63,2.49,2.88.88,2.71.89,4.38v.95Zm-2.96-.89c0-1.89-.36-3.34-1.07-4.35s-1.73-1.51-3.04-1.51-2.28.5-3.01,1.51-1.09,2.42-1.11,4.26v.98c0,1.88.37,3.32,1.1,4.35s1.74,1.54,3.04,1.54,2.32-.5,3.03-1.5,1.06-2.46,1.06-4.38v-.89Z"/>
    <path class="cls-2" d="m63.86,69.13h-6.87v7.23h-2.96v-17.06h10.84v2.39h-7.88v5.07h6.87v2.37Z"/>
    <path class="cls-2" d="m86.21,70.81c-.17,1.82-.84,3.24-2.02,4.26s-2.73,1.53-4.68,1.53c-1.36,0-2.56-.32-3.59-.97s-1.83-1.56-2.4-2.75-.86-2.57-.88-4.14v-1.59c0-1.61.29-3.03.86-4.25s1.39-2.17,2.46-2.84,2.3-1,3.7-1c1.88,0,3.4.51,4.55,1.53s1.82,2.46,2,4.33h-2.95c-.14-1.23-.5-2.11-1.07-2.65s-1.42-.81-2.53-.81c-1.29,0-2.28.47-2.97,1.41s-1.04,2.33-1.06,4.15v1.51c0,1.84.33,3.25.99,4.22s1.63,1.45,2.9,1.45c1.16,0,2.04-.26,2.62-.79s.96-1.39,1.11-2.61h2.95Z"/>
    <path class="cls-2" d="m102.47,68.28c0,1.67-.29,3.14-.87,4.4s-1.4,2.23-2.48,2.91-2.31,1.01-3.71,1.01-2.62-.34-3.7-1.01-1.92-1.64-2.51-2.89-.89-2.69-.9-4.32v-.96c0-1.66.29-3.13.88-4.41s1.42-2.25,2.5-2.92,2.31-1.01,3.7-1.01,2.62.33,3.7,1,1.9,1.63,2.49,2.88.88,2.71.89,4.38v.95Zm-2.96-.89c0-1.89-.36-3.34-1.07-4.35s-1.73-1.51-3.04-1.51-2.28.5-3.01,1.51-1.09,2.42-1.11,4.26v.98c0,1.88.37,3.32,1.1,4.35s1.74,1.54,3.04,1.54,2.32-.5,3.03-1.5,1.06-2.46,1.06-4.38v-.89Z"/>
    <path class="cls-2" d="m108.39,74h7.75v2.37h-10.71v-17.06h2.96v14.7Z"/>
    <path class="cls-2" d="m121.38,74h7.75v2.37h-10.71v-17.06h2.96v14.7Z"/>
    <path class="cls-2" d="m141.37,68.75h-7.01v5.25h8.19v2.37h-11.16v-17.06h11.07v2.39h-8.11v4.71h7.01v2.34Z"/>
    <path class="cls-2" d="m157.99,70.81c-.17,1.82-.84,3.24-2.02,4.26s-2.73,1.53-4.68,1.53c-1.36,0-2.56-.32-3.59-.97s-1.83-1.56-2.4-2.75-.86-2.57-.88-4.14v-1.59c0-1.61.29-3.03.86-4.25s1.39-2.17,2.46-2.84,2.3-1,3.7-1c1.88,0,3.4.51,4.55,1.53s1.82,2.46,2,4.33h-2.95c-.14-1.23-.5-2.11-1.07-2.65s-1.42-.81-2.53-.81c-1.29,0-2.28.47-2.97,1.41s-1.04,2.33-1.06,4.15v1.51c0,1.84.33,3.25.99,4.22s1.63,1.45,2.9,1.45c1.16,0,2.04-.26,2.62-.79s.96-1.39,1.11-2.61h2.95Z"/>
    <path class="cls-2" d="m172.62,61.69h-5.32v14.67h-2.94v-14.67h-5.27v-2.39h13.54v2.39Z"/>
    <path class="cls-2" d="m177.99,76.36h-2.95v-17.06h2.95v17.06Z"/>
    <path class="cls-2" d="m195.17,76.36h-2.96l-7.61-12.11v12.11h-2.96v-17.06h2.96l7.63,12.15v-12.15h2.94v17.06Z"/>
    <path class="cls-2" d="m211.75,74.15c-.62.8-1.47,1.41-2.57,1.83s-2.34.62-3.73.62-2.7-.32-3.8-.97-1.95-1.58-2.55-2.78-.91-2.62-.93-4.22v-1.34c0-2.58.62-4.59,1.85-6.04s2.96-2.17,5.17-2.17c1.9,0,3.41.47,4.52,1.41s1.79,2.29,2.02,4.06h-2.91c-.33-2.05-1.52-3.08-3.57-3.08-1.33,0-2.34.48-3.03,1.43s-1.05,2.36-1.07,4.21v1.31c0,1.84.39,3.27,1.17,4.29.78,1.02,1.86,1.53,3.24,1.53,1.52,0,2.59-.34,3.23-1.03v-3.34h-3.52v-2.25h6.47v6.54Z"/>
  </g>
</svg>