<?xml version="1.0" encoding="UTF-8"?>
<svg id="Capa_1" data-name="Capa 1" xmlns="http://www.w3.org/2000/svg" xmlns:xlink="http://www.w3.org/1999/xlink" viewBox="0 0 152 190">
  <defs>
    <style>
      .cls-1 {
        fill: #fff;
      }

      .cls-2 {
        fill: url(#Degradado_sin_nombre_4);
        stroke: #000;
        stroke-miterlimit: 10;
        stroke-width: 4px;
      }
    </style>
    <linearGradient id="Degradado_sin_nombre_4" data-name="Degradado sin nombre 4" x1="76" y1="-10.75" x2="76" y2="186.99" gradientUnits="userSpaceOnUse">
      <stop offset="0" stop-color="#a5dd4b"/>
      <stop offset=".12" stop-color="#9ed94a"/>
      <stop offset=".29" stop-color="#8bd14a"/>
      <stop offset=".49" stop-color="#6cc248"/>
      <stop offset=".72" stop-color="#40ae47"/>
      <stop offset=".96" stop-color="#099545"/>
      <stop offset="1" stop-color="#009145"/>
    </linearGradient>
  </defs>
  <path class="cls-2" d="m145.28,76.35c0-38.27-31.02-69.28-69.28-69.28S6.72,38.08,6.72,76.35c0,1.05.03,2.09.08,3.13-.05.43-.08.87-.08,1.31v69.28c0,6.38,5.17,11.55,11.55,11.55s11.55-5.17,11.55-11.55v-22.1c4.53,4.06,9.61,7.52,15.1,10.29v33.13c0,6.38,5.17,11.55,11.55,11.55s11.55-5.17,11.55-11.55v-26.23c2.62.3,5.29.47,7.99.47s5.37-.17,7.99-.47v26.23c0,6.38,5.17,11.55,11.55,11.55s11.55-5.17,11.55-11.55v-33.13c5.49-2.76,10.57-6.23,15.1-10.29v22.1c0,6.38,5.17,11.55,11.55,11.55s11.55-5.17,11.55-11.55v-69.28c0-.44-.03-.88-.08-1.31.05-1.04.08-2.08.08-3.13Z"/>
  <path class="cls-1" d="m65.03,60.58l5.42-5.42c2.43-2.43,2.43-6.37,0-8.79-2.43-2.43-6.37-2.43-8.79,0l-5.42,5.42-5.42-5.42c-2.43-2.43-6.37-2.43-8.79,0-2.43,2.43-2.43,6.37,0,8.79l5.42,5.42-5.42,5.42c-2.43,2.43-2.43,6.37,0,8.79,2.43,2.43,6.37,2.43,8.79,0l5.42-5.42,5.42,5.42c2.43,2.43,6.37,2.43,8.79,0,2.43-2.43,2.43-6.37,0-8.79l-5.42-5.42Z"/>
  <path class="cls-1" d="m108.55,60.58l5.42-5.42c2.43-2.43,2.43-6.37,0-8.79-2.43-2.43-6.37-2.43-8.79,0l-5.42,5.42-5.42-5.42c-2.43-2.43-6.37-2.43-8.79,0-2.43,2.43-2.43,6.37,0,8.79l5.42,5.42-5.42,5.42c-2.43,2.43-2.43,6.37,0,8.79,2.43,2.43,6.37,2.43,8.79,0l5.42-5.42,5.42,5.42c2.43,2.43,6.37,2.43,8.79,0,2.43-2.43,2.43-6.37,0-8.79l-5.42-5.42Z"/>
</svg>