<?xml version="1.0" encoding="UTF-8"?>
<svg xmlns="http://www.w3.org/2000/svg" xmlns:xlink="http://www.w3.org/1999/xlink" viewBox="0 0 152 190">
  <defs>
    <style>
      .cls-1, .cls-2 {
        fill: #faaf3b;
      }

      .cls-2 {
        stroke: #f05a24;
      }

      .cls-2, .cls-3 {
        stroke-width: .5px;
      }

      .cls-2, .cls-3, .cls-4, .cls-5 {
        stroke-miterlimit: 10;
      }

      .cls-6 {
        fill: #fff;
      }

      .cls-7 {
        isolation: isolate;
      }

      .cls-8 {
        filter: url(#drop-shadow-1);
      }

      .cls-9 {
        fill: #0a364f;
      }

      .cls-3 {
        fill: #39b44a;
      }

      .cls-3, .cls-4 {
        stroke: #000;
      }

      .cls-10 {
        fill: #e5e5e5;
      }

      .cls-4 {
        fill: url(#Degradado_sin_nombre_4);
        stroke-width: 2.5px;
      }

      .cls-5 {
        fill: none;
        stroke: gray;
      }

      .cls-11 {
        fill: #128850;
      }

      .cls-12 {
        fill: #666;
      }

      .cls-13 {
        mix-blend-mode: soft-light;
        opacity: .44;
      }
    </style>
    <filter id="drop-shadow-1" filterUnits="userSpaceOnUse">
      <feOffset dx="5" dy="5"/>
      <feGaussianBlur result="blur" stdDeviation="5"/>
      <feFlood flood-color="#000" flood-opacity=".6"/>
      <feComposite in2="blur" operator="in"/>
      <feComposite in="SourceGraphic"/>
    </filter>
    <linearGradient id="Degradado_sin_nombre_4" data-name="Degradado sin nombre 4" x1="76" y1="65.54" x2="76" y2="176.37" gradientUnits="userSpaceOnUse">
      <stop offset="0" stop-color="#a5dd4b"/>
      <stop offset=".12" stop-color="#9ed94a"/>
      <stop offset=".29" stop-color="#8bd14a"/>
      <stop offset=".49" stop-color="#6cc248"/>
      <stop offset=".72" stop-color="#40ae47"/>
      <stop offset=".96" stop-color="#099545"/>
      <stop offset="1" stop-color="#009145"/>
    </linearGradient>
  </defs>
  <g class="cls-7">
    <g id="Capa_1" data-name="Capa 1">
      <g>
        <g>
          <path class="cls-2" d="m132.28,1.64H19.72C10.33,1.64,2.72,9.25,2.72,18.64v152.52c0,9.39,7.61,17,17,17h112.56c9.39,0,17-7.61,17-17V18.64c0-9.39-7.61-17-17-17Zm-46.95,20.67h-18.66c-2.03,0-3.67-1.68-3.67-3.75s1.64-3.75,3.67-3.75h4.98c.27-2.21,2.12-3.91,4.35-3.91s4.08,1.71,4.35,3.91h4.98c2.03,0,3.67,1.68,3.67,3.75s-1.64,3.75-3.67,3.75Z"/>
          <path class="cls-9" d="m130.61,6.1H21.39c-8.28,0-15,6.72-15,15v147.59c0,8.28,6.72,15,15,15h109.22c8.28,0,15-6.72,15-15V21.1c0-8.28-6.72-15-15-15Zm-45.28,16.2h-18.66c-2.03,0-3.67-1.68-3.67-3.75s1.64-3.75,3.67-3.75h4.98c.27-2.21,2.12-3.91,4.35-3.91s4.08,1.71,4.35,3.91h4.98c2.03,0,3.67,1.68,3.67,3.75s-1.64,3.75-3.67,3.75Z"/>
          <g>
            <rect class="cls-11" x="18.87" y="68.5" width="114.26" height="111.09" rx="15.88" ry="15.88"/>
            <path class="cls-12" d="m117.25,69c8.48,0,15.38,6.9,15.38,15.38v79.33c0,8.48-6.9,15.38-15.38,15.38H34.75c-8.48,0-15.38-6.9-15.38-15.38v-79.33c0-8.48,6.9-15.38,15.38-15.38h82.5m0-1H34.75c-9.05,0-16.38,7.33-16.38,16.38v79.33c0,9.05,7.33,16.38,16.38,16.38h82.5c9.05,0,16.38-7.33,16.38-16.38v-79.33c0-9.05-7.33-16.38-16.38-16.38h0Z"/>
          </g>
          <rect class="cls-5" x="15.72" y="64.59" width="120.56" height="115.5" rx="16.38" ry="16.38"/>
        </g>
        <g class="cls-8">
          <path class="cls-4" d="m114.83,114.35c0-21.45-17.39-38.83-38.83-38.83s-38.83,17.39-38.83,38.83c0,.59.02,1.17.04,1.76-.03.24-.04.49-.04.73v38.83c0,3.57,2.9,6.47,6.47,6.47s6.47-2.9,6.47-6.47v-12.39c2.54,2.28,5.39,4.22,8.46,5.76v18.57c0,3.57,2.9,6.47,6.47,6.47s6.47-2.9,6.47-6.47v-14.7c1.47.17,2.96.27,4.48.27s3.01-.1,4.48-.27v14.7c0,3.57,2.9,6.47,6.47,6.47s6.47-2.9,6.47-6.47v-18.57c3.08-1.55,5.92-3.49,8.46-5.76v12.39c0,3.57,2.9,6.47,6.47,6.47s6.47-2.9,6.47-6.47v-38.83c0-.25-.02-.49-.04-.73.03-.58.04-1.17.04-1.76Z"/>
          <path class="cls-6" d="m69.85,105.51l3.04-3.04c1.36-1.36,1.36-3.57,0-4.93-1.36-1.36-3.57-1.36-4.93,0l-3.04,3.04-3.04-3.04c-1.36-1.36-3.57-1.36-4.93,0-1.36,1.36-1.36,3.57,0,4.93l3.04,3.04-3.04,3.04c-1.36,1.36-1.36,3.57,0,4.93,1.36,1.36,3.57,1.36,4.93,0l3.04-3.04,3.04,3.04c1.36,1.36,3.57,1.36,4.93,0,1.36-1.36,1.36-3.57,0-4.93l-3.04-3.04Z"/>
          <path class="cls-6" d="m94.25,105.51l3.04-3.04c1.36-1.36,1.36-3.57,0-4.93-1.36-1.36-3.57-1.36-4.93,0l-3.04,3.04-3.04-3.04c-1.36-1.36-3.57-1.36-4.93,0-1.36,1.36-1.36,3.57,0,4.93l3.04,3.04-3.04,3.04c-1.36,1.36-1.36,3.57,0,4.93,1.36,1.36,3.57,1.36,4.93,0l3.04-3.04,3.04,3.04c1.36,1.36,3.57,1.36,4.93,0,1.36-1.36,1.36-3.57,0-4.93l-3.04-3.04Z"/>
        </g>
        <g class="cls-13">
          <rect class="cls-10" x="107.38" y="113.09" width="21" height="60" rx="10.5" ry="10.5"/>
        </g>
        <g class="cls-13">
          <path class="cls-10" d="m28.88,138.09h0c3.04,0,5.5-4.7,5.5-10.5v-39c0-5.8-2.46-10.5-5.5-10.5h0c-3.04,0-5.5,4.7-5.5,10.5v39c0,5.8,2.46,10.5,5.5,10.5Z"/>
        </g>
      </g>
      <g>
        <g>
          <path class="cls-3" d="m24.17,25.59l4.7,14.66,4.69-14.66h6.69v21.08h-5.1v-4.92l.49-10.07-5.1,15h-3.36l-5.11-15.01.49,10.09v4.92h-5.08v-21.08h6.67Z"/>
          <path class="cls-3" d="m55.45,42.73h-6.96l-1.22,3.94h-5.43l7.73-21.08h4.78l7.79,21.08h-5.46l-1.23-3.94Zm-5.75-3.92h4.53l-2.27-7.31-2.26,7.31Z"/>
          <path class="cls-3" d="m74.55,41.06c0-.74-.26-1.32-.79-1.74-.53-.41-1.45-.84-2.77-1.29-1.32-.44-2.4-.87-3.24-1.29-2.73-1.34-4.1-3.18-4.1-5.53,0-1.17.34-2.2,1.02-3.09.68-.89,1.64-1.59,2.89-2.08,1.24-.5,2.64-.75,4.2-.75s2.87.27,4.07.81c1.2.54,2.14,1.31,2.8,2.31s1,2.14,1,3.42h-5.07c0-.86-.26-1.52-.79-2-.53-.47-1.24-.71-2.14-.71s-1.62.2-2.15.6c-.53.4-.79.91-.79,1.53,0,.54.29,1.03.87,1.47.58.44,1.6.89,3.05,1.36,1.46.47,2.65.97,3.59,1.51,2.28,1.31,3.42,3.12,3.42,5.43,0,1.84-.69,3.29-2.08,4.34s-3.3,1.58-5.72,1.58c-1.71,0-3.25-.31-4.64-.92s-2.43-1.45-3.13-2.52-1.05-2.29-1.05-3.68h5.1c0,1.13.29,1.96.88,2.5.58.54,1.53.8,2.84.8.84,0,1.5-.18,1.99-.54.49-.36.73-.87.73-1.53Z"/>
          <path class="cls-3" d="m98.78,29.51h-6.33v17.15h-5.08v-17.15h-6.21v-3.92h17.62v3.92Z"/>
          <path class="cls-3" d="m113.99,37.72h-7.99v5.04h9.44v3.91h-14.52v-21.08h14.55v3.92h-9.47v4.44h7.99v3.76Z"/>
          <path class="cls-3" d="m125.34,39.21h-2.75v7.45h-5.08v-21.08h8.29c2.5,0,4.45.55,5.86,1.66,1.41,1.11,2.11,2.68,2.11,4.7,0,1.47-.3,2.68-.89,3.64s-1.52,1.74-2.79,2.34l4.4,8.51v.22h-5.44l-3.72-7.45Zm-2.75-3.91h3.21c.96,0,1.69-.25,2.18-.76.49-.51.73-1.22.73-2.13s-.25-1.62-.74-2.14-1.22-.78-2.17-.78h-3.21v5.8Z"/>
        </g>
        <g>
          <rect class="cls-1" x="27.41" y="49.06" width="96.34" height="11.36" rx="3.12" ry="3.12"/>
          <g>
            <path class="cls-6" d="m39.3,54.97c0,.83-.14,1.55-.43,2.17s-.69,1.1-1.22,1.44-1.14.5-1.83.5-1.29-.17-1.83-.5-.95-.81-1.24-1.43-.44-1.33-.44-2.14v-.47c0-.82.15-1.55.44-2.18s.7-1.11,1.23-1.44,1.14-.5,1.83-.5,1.3.17,1.83.5.94.8,1.23,1.42.44,1.34.44,2.16v.47Zm-1.46-.44c0-.93-.18-1.65-.53-2.15s-.85-.75-1.5-.75-1.13.25-1.49.74-.54,1.2-.55,2.1v.49c0,.93.18,1.64.54,2.15s.86.76,1.5.76,1.15-.25,1.5-.74.52-1.22.52-2.17v-.44Z"/>
            <path class="cls-6" d="m45.62,55.4h-3.39v3.57h-1.46v-8.43h5.36v1.18h-3.89v2.51h3.39v1.17Z"/>
            <path class="cls-6" d="m56.66,56.22c-.08.9-.42,1.6-1,2.1s-1.35.76-2.31.76c-.67,0-1.26-.16-1.77-.48s-.91-.77-1.18-1.36-.42-1.27-.43-2.04v-.79c0-.8.14-1.5.42-2.1s.69-1.07,1.21-1.4,1.14-.49,1.83-.49c.93,0,1.68.25,2.25.76s.9,1.22.99,2.14h-1.46c-.07-.61-.25-1.04-.53-1.31s-.7-.4-1.25-.4c-.64,0-1.13.23-1.47.7s-.52,1.15-.52,2.05v.75c0,.91.16,1.61.49,2.09s.8.72,1.43.72c.58,0,1.01-.13,1.3-.39s.47-.69.55-1.29h1.46Z"/>
            <path class="cls-6" d="m64.7,54.97c0,.83-.14,1.55-.43,2.17s-.69,1.1-1.22,1.44-1.14.5-1.83.5-1.29-.17-1.83-.5-.95-.81-1.24-1.43-.44-1.33-.44-2.14v-.47c0-.82.15-1.55.44-2.18s.7-1.11,1.23-1.44,1.14-.5,1.83-.5,1.3.17,1.83.5.94.8,1.23,1.42.44,1.34.44,2.16v.47Zm-1.46-.44c0-.93-.18-1.65-.53-2.15s-.85-.75-1.5-.75-1.13.25-1.49.74-.54,1.2-.55,2.1v.49c0,.93.18,1.64.54,2.15s.86.76,1.5.76,1.15-.25,1.5-.74.52-1.22.52-2.17v-.44Z"/>
            <path class="cls-6" d="m67.62,57.8h3.83v1.17h-5.29v-8.43h1.46v7.26Z"/>
            <path class="cls-6" d="m74.04,57.8h3.83v1.17h-5.29v-8.43h1.46v7.26Z"/>
            <path class="cls-6" d="m83.91,55.2h-3.46v2.59h4.05v1.17h-5.51v-8.43h5.47v1.18h-4.01v2.33h3.46v1.16Z"/>
            <path class="cls-6" d="m92.12,56.22c-.08.9-.42,1.6-1,2.1s-1.35.76-2.31.76c-.67,0-1.26-.16-1.77-.48s-.91-.77-1.18-1.36-.42-1.27-.43-2.04v-.79c0-.8.14-1.5.42-2.1s.69-1.07,1.21-1.4,1.14-.49,1.83-.49c.93,0,1.68.25,2.25.76s.9,1.22.99,2.14h-1.46c-.07-.61-.25-1.04-.53-1.31s-.7-.4-1.25-.4c-.64,0-1.13.23-1.47.7s-.52,1.15-.52,2.05v.75c0,.91.16,1.61.49,2.09s.8.72,1.43.72c.58,0,1.01-.13,1.3-.39s.47-.69.55-1.29h1.46Z"/>
            <path class="cls-6" d="m99.36,51.72h-2.63v7.25h-1.45v-7.25h-2.61v-1.18h6.69v1.18Z"/>
            <path class="cls-6" d="m102.01,58.97h-1.46v-8.43h1.46v8.43Z"/>
            <path class="cls-6" d="m110.5,58.97h-1.46l-3.76-5.98v5.98h-1.46v-8.43h1.46l3.77,6v-6h1.45v8.43Z"/>
            <path class="cls-6" d="m118.69,57.87c-.3.4-.73.7-1.27.9s-1.15.31-1.84.31-1.33-.16-1.88-.48-.96-.78-1.26-1.38-.45-1.29-.46-2.09v-.66c0-1.27.3-2.27.91-2.98s1.46-1.07,2.55-1.07c.94,0,1.68.23,2.23.7s.88,1.13,1,2.01h-1.44c-.16-1.02-.75-1.52-1.77-1.52-.66,0-1.16.24-1.5.71s-.52,1.17-.53,2.08v.65c0,.91.19,1.62.58,2.12.38.5.92.75,1.6.75.75,0,1.28-.17,1.6-.51v-1.65h-1.74v-1.11h3.2v3.23Z"/>
          </g>
        </g>
      </g>
    </g>
  </g>
</svg>