<?xml version="1.0" encoding="UTF-8"?>
<svg id="Capa_1" data-name="Capa 1" xmlns="http://www.w3.org/2000/svg" xmlns:xlink="http://www.w3.org/1999/xlink" viewBox="0 0 755 49">
  <defs>
    <style>
      .cls-1 {
        fill: #55b848;
      }

      .cls-2 {
        fill: #9eda4b;
      }

      .cls-3 {
        fill: #9cd94b;
      }

      .cls-4 {
        fill: #33a947;
      }

      .cls-5 {
        fill: #23a146;
      }

      .cls-6 {
        fill: #6fc449;
      }

      .cls-7 {
        fill: #96d64a;
      }

      .cls-8 {
        fill: #52b748;
      }

      .cls-9 {
        fill: #7dca4a;
      }

      .cls-10 {
        fill: #fff;
      }

      .cls-11 {
        fill: #3fae47;
      }

      .cls-12 {
        fill: #7ac949;
      }

      .cls-13 {
        fill: #46b148;
      }

      .cls-14 {
        fill: #91d44a;
      }

      .cls-15 {
        fill: #53b748;
      }

      .cls-16 {
        fill: #139a46;
      }

      .cls-17 {
        fill: #40af47;
      }

      .cls-18 {
        fill: #1c9e46;
      }

      .cls-19 {
        fill: #129946;
      }

      .cls-20 {
        fill: #99d74b;
      }

      .cls-21 {
        fill: #5bbb48;
      }

      .cls-22 {
        fill: #70c449;
      }

      .cls-23 {
        fill: #89d04a;
      }

      .cls-24 {
        fill: #77c849;
      }

      .cls-25 {
        fill: #9fda4b;
      }

      .cls-26 {
        fill: #2fa747;
      }

      .cls-27 {
        fill: #0c9645;
      }

      .cls-28 {
        fill: #98d74b;
      }

      .cls-29 {
        fill: #60bd48;
      }

      .cls-30 {
        fill: #1d9e46;
      }

      .cls-31 {
        fill: #0a9645;
      }

      .cls-32 {
        fill: #4fb548;
      }

      .cls-33 {
        fill: #8bd14a;
      }

      .cls-34 {
        fill: #66c049;
      }

      .cls-35 {
        fill: #94d54a;
      }

      .cls-36 {
        fill: #2aa447;
      }

      .cls-37 {
        fill: #93d54a;
      }

      .cls-38 {
        fill: #78c849;
      }

      .cls-39 {
        fill: #8dd24a;
      }

      .cls-40 {
        fill: #64bf49;
      }

      .cls-41 {
        fill: #079445;
      }

      .cls-42 {
        fill: #87cf4a;
      }

      .cls-43 {
        fill: #6ec449;
      }

      .cls-44 {
        fill: #50b648;
      }

      .cls-45 {
        fill: #34a947;
      }

      .cls-46 {
        fill: #9dd94b;
      }

      .cls-47 {
        fill: #099545;
      }

      .cls-48 {
        fill: #71c549;
      }

      .cls-49 {
        fill: #95d64a;
      }

      .cls-50 {
        fill: #92d44a;
      }

      .cls-51 {
        fill: #68c149;
      }

      .cls-52 {
        fill: #2ba547;
      }

      .cls-53 {
        fill: #97d64a;
      }

      .cls-54 {
        fill: #24a246;
      }

      .cls-55 {
        fill: #56b948;
      }

      .cls-56 {
        fill: #88d04a;
      }

      .cls-57 {
        fill: #79c949;
      }

      .cls-58 {
        fill: #109846;
      }

      .cls-59 {
        fill: #97d74b;
      }

      .cls-60 {
        fill: #37aa47;
      }

      .cls-61 {
        fill: #21a046;
      }

      .cls-62 {
        fill: #5dbc48;
      }

      .cls-63 {
        fill: #69c249;
      }

      .cls-64 {
        fill: #3ead47;
      }

      .cls-65 {
        fill: #65c049;
      }

      .cls-66 {
        fill: #82cd4a;
      }

      .cls-67 {
        fill: #81cd4a;
      }

      .cls-68 {
        fill: #4bb448;
      }

      .cls-69 {
        fill: #74c649;
      }

      .cls-70 {
        fill: #20a046;
      }

      .cls-71 {
        fill: #38ab47;
      }

      .cls-72 {
        fill: #7fcc4a;
      }

      .cls-73 {
        fill: #3bac47;
      }

      .cls-74 {
        fill: #9bd84b;
      }

      .cls-75 {
        fill: #179c46;
      }

      .cls-76 {
        fill: #1a9d46;
      }

      .cls-77 {
        fill: #72c549;
      }

      .cls-78 {
        fill: #41af47;
      }

      .cls-79 {
        fill: #3aac47;
      }

      .cls-80 {
        fill: #7bca49;
      }

      .cls-81 {
        fill: #159a46;
      }

      .cls-82 {
        fill: #5cbb48;
      }

      .cls-83 {
        fill: #5ebc48;
      }

      .cls-84 {
        fill: #83cd4a;
      }

      .cls-85 {
        fill: #75c749;
      }

      .cls-86 {
        fill: #85ce4a;
      }

      .cls-87 {
        fill: #57b948;
      }

      .cls-88 {
        fill: #30a747;
      }

      .cls-89 {
        fill: #84ce4a;
      }

      .cls-90 {
        fill: #80cc4a;
      }

      .cls-91 {
        fill: #26a246;
      }

      .cls-92 {
        fill: #73c649;
      }

      .cls-93 {
        fill: #4db448;
      }

      .cls-94 {
        fill: #62be49;
      }

      .cls-95 {
        fill: #169b46;
      }

      .cls-96 {
        clip-path: url(#clippath);
      }

      .cls-97 {
        fill: #7ecb4a;
      }

      .cls-98 {
        fill: #61be49;
      }

      .cls-99 {
        fill: #7cca49;
      }

      .cls-100 {
        fill: #a0db4b;
      }

      .cls-101 {
        fill: #95d54a;
      }

      .cls-102 {
        fill: #28a446;
      }

      .cls-103 {
        fill: #32a847;
      }

      .cls-104 {
        fill: #44b047;
      }

      .cls-105 {
        fill: #54b848;
      }

      .cls-106 {
        fill: #63bf49;
      }

      .cls-107 {
        fill: #6ac249;
      }

      .cls-108 {
        fill: none;
      }

      .cls-109 {
        fill: #43b047;
      }

      .cls-110 {
        fill: #90d34a;
      }

      .cls-111 {
        fill: #59ba48;
      }

      .cls-112 {
        fill: #8fd34a;
      }

      .cls-113 {
        fill: #6dc349;
      }

      .cls-114 {
        fill: #99d84b;
      }

      .cls-115 {
        fill: #3cad47;
      }

      .cls-116 {
        fill: #069445;
      }

      .cls-117 {
        fill: #8ed24a;
      }

      .cls-118 {
        fill: #2ea647;
      }

      .cls-119 {
        fill: #8cd24a;
      }

      .cls-120 {
        fill: #27a346;
      }

      .cls-121 {
        fill: #199c46;
      }

      .cls-122 {
        fill: #0f9846;
      }

      .cls-123 {
        fill: #8ad14a;
      }

      .cls-124 {
        fill: #4eb548;
      }

      .cls-125 {
        fill: #67c149;
      }

      .cls-126 {
        fill: #48b248;
      }

      .cls-127 {
        fill: #6cc349;
      }

      .cls-128 {
        fill: #36aa47;
      }

      .cls-129 {
        fill: #9ad84b;
      }

      .cls-130 {
        fill: #49b348;
      }

      .cls-131 {
        fill: #2ca547;
      }

      .cls-132 {
        fill: #5aba48;
      }

      .cls-133 {
        fill: #a1db4b;
      }

      .cls-134 {
        fill: #86cf4a;
      }

      .cls-135 {
        fill: #049345;
      }

      .cls-136 {
        fill: #39b44a;
        stroke: #000;
        stroke-miterlimit: 10;
      }

      .cls-137 {
        fill: #1f9f46;
      }

      .cls-138 {
        fill: #76c749;
      }

      .cls-139 {
        fill: #0d9745;
      }

      .cls-140 {
        fill: #4ab348;
      }

      .cls-141 {
        fill: #45b148;
      }

      .cls-142 {
        fill: #8cd14a;
      }
    </style>
    <clipPath id="clippath">
      <path class="cls-108" d="m39.1,19.42c0-9.37-7.59-16.96-16.96-16.96S5.19,10.06,5.19,19.42c0,.26,0,.51.02.77-.01.11-.02.21-.02.32v16.96c0,1.56,1.27,2.83,2.83,2.83s2.83-1.27,2.83-2.83v-5.41c1.11.99,2.35,1.84,3.7,2.52v8.11c0,1.56,1.27,2.83,2.83,2.83s2.83-1.27,2.83-2.83v-6.42c.64.07,1.29.12,1.96.12s1.31-.04,1.96-.12v6.42c0,1.56,1.27,2.83,2.83,2.83s2.83-1.27,2.83-2.83v-8.11c1.34-.68,2.59-1.52,3.7-2.52v5.41c0,1.56,1.27,2.83,2.83,2.83s2.83-1.27,2.83-2.83v-16.96c0-.11,0-.22-.02-.32.01-.25.02-.51.02-.77Z"/>
    </clipPath>
  </defs>
  <g>
    <path class="cls-136" d="m66.61,3.2l9.52,29.68,9.49-29.68h13.54v42.66h-10.31v-9.96l1-20.39-10.31,30.35h-6.8l-10.34-30.38,1,20.42v9.96h-10.28V3.2h13.51Z"/>
    <path class="cls-136" d="m129.92,37.88h-14.09l-2.46,7.97h-10.99L118.02,3.2h9.67l15.76,42.66h-11.04l-2.49-7.97Zm-11.63-7.94h9.17l-4.6-14.79-4.57,14.79Z"/>
    <path class="cls-136" d="m168.56,34.51c0-1.5-.53-2.68-1.6-3.52s-2.93-1.71-5.61-2.61-4.86-1.77-6.56-2.61c-5.53-2.71-8.29-6.45-8.29-11.19,0-2.36.69-4.45,2.07-6.25,1.38-1.81,3.33-3.21,5.84-4.22,2.52-1.01,5.35-1.51,8.5-1.51s5.82.55,8.25,1.64,4.32,2.65,5.67,4.67,2.02,4.33,2.02,6.93h-10.25c0-1.74-.53-3.09-1.6-4.04s-2.5-1.44-4.32-1.44-3.29.41-4.35,1.22c-1.06.81-1.6,1.84-1.6,3.09,0,1.09.59,2.08,1.76,2.97,1.17.89,3.23,1.81,6.18,2.75,2.95.95,5.37,1.97,7.27,3.06,4.61,2.66,6.91,6.32,6.91,10.99,0,3.73-1.41,6.66-4.22,8.79s-6.67,3.19-11.57,3.19c-3.46,0-6.59-.62-9.39-1.86-2.8-1.24-4.91-2.94-6.33-5.1-1.42-2.16-2.12-4.64-2.12-7.46h10.31c0,2.29.59,3.97,1.77,5.05s3.1,1.63,5.76,1.63c1.7,0,3.04-.37,4.03-1.1s1.48-1.76,1.48-3.09Z"/>
    <path class="cls-136" d="m217.6,11.13h-12.8v34.72h-10.28V11.13h-12.57V3.2h35.65v7.94Z"/>
    <path class="cls-136" d="m248.39,27.75h-16.17v10.2h19.1v7.91h-29.38V3.2h29.44v7.94h-19.16v8.99h16.17v7.62Z"/>
    <path class="cls-136" d="m271.36,30.76h-5.57v15.09h-10.28V3.2h16.79c5.06,0,9.01,1.12,11.87,3.37,2.85,2.24,4.28,5.41,4.28,9.51,0,2.97-.6,5.42-1.8,7.38s-3.08,3.53-5.64,4.74l8.91,17.22v.44h-11.02l-7.53-15.09Zm-5.57-7.91h6.5c1.95,0,3.42-.51,4.41-1.54s1.48-2.46,1.48-4.3-.5-3.28-1.49-4.33-2.46-1.57-4.39-1.57h-6.5v11.75Z"/>
    <path class="cls-136" d="m345.72,25.4c0,4.16-.77,7.84-2.31,11.04s-3.74,5.67-6.58,7.4-6.08,2.59-9.71,2.59-6.86-.83-9.67-2.5-5-4.06-6.58-7.16-2.4-6.67-2.48-10.69v-2.4c0-4.18.77-7.87,2.3-11.06s3.73-5.66,6.59-7.4,6.12-2.61,9.77-2.61,6.84.86,9.67,2.58,5.03,4.17,6.61,7.34c1.57,3.17,2.37,6.81,2.39,10.91v1.96Zm-10.46-1.79c0-4.24-.71-7.46-2.12-9.65s-3.44-3.3-6.08-3.3c-5.16,0-7.88,3.87-8.17,11.6l-.03,3.13c0,4.18.69,7.39,2.08,9.64s3.45,3.37,6.18,3.37,4.6-1.1,6.01-3.31,2.12-5.38,2.14-9.52v-1.96Z"/>
    <path class="cls-136" d="m377.88,28.86h-16.58v16.99h-10.28V3.2h28.54v7.94h-18.25v9.81h16.58v7.91Z"/>
    <path class="cls-136" d="m433.29,31.41c-.14,2.97-.94,5.59-2.4,7.87-1.46,2.28-3.52,4.04-6.17,5.29s-5.67,1.88-9.07,1.88c-5.61,0-10.02-1.83-13.24-5.48s-4.83-8.81-4.83-15.47v-2.11c0-4.18.73-7.84,2.18-10.97s3.55-5.56,6.28-7.27c2.73-1.71,5.9-2.56,9.49-2.56,5.18,0,9.34,1.36,12.48,4.09s4.93,6.48,5.36,11.26h-10.25c-.08-2.6-.73-4.46-1.96-5.6s-3.11-1.7-5.62-1.7-4.43.96-5.62,2.87-1.82,4.97-1.88,9.17v3.02c0,4.55.57,7.8,1.71,9.76s3.11,2.93,5.9,2.93c2.36,0,4.17-.56,5.42-1.67s1.91-2.88,1.99-5.3h10.22Z"/>
    <path class="cls-136" d="m474.27,25.4c0,4.16-.77,7.84-2.31,11.04s-3.74,5.67-6.58,7.4-6.08,2.59-9.71,2.59-6.86-.83-9.67-2.5-5-4.06-6.58-7.16-2.4-6.67-2.48-10.69v-2.4c0-4.18.77-7.87,2.3-11.06s3.73-5.66,6.59-7.4,6.12-2.61,9.77-2.61,6.84.86,9.67,2.58,5.03,4.17,6.61,7.34c1.57,3.17,2.37,6.81,2.39,10.91v1.96Zm-10.46-1.79c0-4.24-.71-7.46-2.12-9.65s-3.44-3.3-6.08-3.3c-5.16,0-7.88,3.87-8.17,11.6l-.03,3.13c0,4.18.69,7.39,2.08,9.64s3.45,3.37,6.18,3.37,4.6-1.1,6.01-3.31,2.12-5.38,2.14-9.52v-1.96Z"/>
    <path class="cls-136" d="m489.86,37.94h17.9v7.91h-28.18V3.2h10.28v34.75Z"/>
    <path class="cls-136" d="m522.38,37.94h17.9v7.91h-28.18V3.2h10.28v34.75Z"/>
    <path class="cls-136" d="m571.07,27.75h-16.17v10.2h19.1v7.91h-29.38V3.2h29.44v7.94h-19.16v8.99h16.17v7.62Z"/>
    <path class="cls-136" d="m612.7,31.41c-.14,2.97-.94,5.59-2.4,7.87-1.46,2.28-3.52,4.04-6.17,5.29s-5.67,1.88-9.07,1.88c-5.61,0-10.02-1.83-13.24-5.48s-4.83-8.81-4.83-15.47v-2.11c0-4.18.73-7.84,2.18-10.97s3.55-5.56,6.28-7.27c2.73-1.71,5.9-2.56,9.49-2.56,5.18,0,9.34,1.36,12.48,4.09s4.93,6.48,5.36,11.26h-10.25c-.08-2.6-.73-4.46-1.96-5.6s-3.11-1.7-5.62-1.7-4.43.96-5.62,2.87-1.82,4.97-1.88,9.17v3.02c0,4.55.57,7.8,1.71,9.76s3.11,2.93,5.9,2.93c2.36,0,4.17-.56,5.42-1.67s1.91-2.88,1.99-5.3h10.22Z"/>
    <path class="cls-136" d="m650.2,11.13h-12.8v34.72h-10.28V11.13h-12.57V3.2h35.65v7.94Z"/>
    <path class="cls-136" d="m665.49,45.85h-10.25V3.2h10.25v42.66Z"/>
    <path class="cls-136" d="m708.27,45.85h-10.22l-15.12-26.54v26.54h-10.28V3.2h10.28l15.09,26.54V3.2h10.25v42.66Z"/>
    <path class="cls-136" d="m749.69,40.58c-1.58,1.76-3.9,3.17-6.94,4.25s-6.39,1.61-10.02,1.61c-5.59,0-10.05-1.71-13.39-5.13s-5.13-8.17-5.36-14.27l-.03-3.69c0-4.2.74-7.87,2.23-11s3.61-5.55,6.37-7.24c2.76-1.69,5.96-2.53,9.59-2.53,5.31,0,9.44,1.22,12.38,3.65s4.65,6.06,5.14,10.88h-9.9c-.35-2.38-1.11-4.08-2.29-5.1s-2.83-1.52-4.98-1.52c-2.58,0-4.57,1.09-5.98,3.28s-2.12,5.31-2.14,9.38v2.58c0,4.26.73,7.46,2.18,9.59s3.75,3.21,6.87,3.21c2.68,0,4.67-.6,5.98-1.79v-6.62h-7.15v-7.06h17.43v17.52Z"/>
  </g>
  <g>
    <g>
      <g class="cls-96">
        <rect class="cls-133" x="5.19" y="2.47" width="33.91" height=".04"/>
        <rect class="cls-100" x="5.19" y="2.51" width="33.91" height=".29"/>
        <rect class="cls-100" x="5.19" y="2.8" width="33.91" height=".29"/>
        <rect class="cls-25" x="5.19" y="3.09" width="33.91" height=".29"/>
        <rect class="cls-25" x="5.19" y="3.39" width="33.91" height=".29"/>
        <rect class="cls-2" x="5.19" y="3.68" width="33.91" height=".29"/>
        <rect class="cls-2" x="5.19" y="3.97" width="33.91" height=".29"/>
        <rect class="cls-46" x="5.19" y="4.27" width="33.91" height=".29"/>
        <rect class="cls-46" x="5.19" y="4.56" width="33.91" height=".29"/>
        <rect class="cls-3" x="5.19" y="4.85" width="33.91" height=".29"/>
        <rect class="cls-3" x="5.19" y="5.15" width="33.91" height=".29"/>
        <rect class="cls-74" x="5.19" y="5.44" width="33.91" height=".29"/>
        <rect class="cls-74" x="5.19" y="5.73" width="33.91" height=".29"/>
        <rect class="cls-129" x="5.19" y="6.03" width="33.91" height=".29"/>
        <rect class="cls-114" x="5.19" y="6.32" width="33.91" height=".29"/>
        <rect class="cls-20" x="5.19" y="6.61" width="33.91" height=".29"/>
        <rect class="cls-28" x="5.19" y="6.91" width="33.91" height=".29"/>
        <rect class="cls-59" x="5.19" y="7.2" width="33.91" height=".29"/>
        <rect class="cls-53" x="5.19" y="7.49" width="33.91" height=".29"/>
        <rect class="cls-7" x="5.19" y="7.79" width="33.91" height=".29"/>
        <rect class="cls-49" x="5.19" y="8.08" width="33.91" height=".29"/>
        <rect class="cls-101" x="5.19" y="8.37" width="33.91" height=".29"/>
        <rect class="cls-35" x="5.19" y="8.67" width="33.91" height=".29"/>
        <rect class="cls-37" x="5.19" y="8.96" width="33.91" height=".29"/>
        <rect class="cls-50" x="5.19" y="9.25" width="33.91" height=".29"/>
        <rect class="cls-50" x="5.19" y="9.55" width="33.91" height=".29"/>
        <rect class="cls-14" x="5.19" y="9.84" width="33.91" height=".29"/>
        <rect class="cls-110" x="5.19" y="10.13" width="33.91" height=".29"/>
        <rect class="cls-112" x="5.19" y="10.43" width="33.91" height=".29"/>
        <rect class="cls-112" x="5.19" y="10.72" width="33.91" height=".29"/>
        <rect class="cls-117" x="5.19" y="11.01" width="33.91" height=".29"/>
        <rect class="cls-39" x="5.19" y="11.31" width="33.91" height=".29"/>
        <rect class="cls-119" x="5.19" y="11.6" width="33.91" height=".29"/>
        <rect class="cls-142" x="5.19" y="11.89" width="33.91" height=".29"/>
        <rect class="cls-33" x="5.19" y="12.19" width="33.91" height=".29"/>
        <rect class="cls-123" x="5.19" y="12.48" width="33.91" height=".29"/>
        <rect class="cls-23" x="5.19" y="12.77" width="33.91" height=".29"/>
        <rect class="cls-56" x="5.19" y="13.07" width="33.91" height=".29"/>
        <rect class="cls-42" x="5.19" y="13.36" width="33.91" height=".29"/>
        <rect class="cls-42" x="5.19" y="13.65" width="33.91" height=".29"/>
        <rect class="cls-134" x="5.19" y="13.95" width="33.91" height=".29"/>
        <rect class="cls-86" x="5.19" y="14.24" width="33.91" height=".29"/>
        <rect class="cls-89" x="5.19" y="14.53" width="33.91" height=".29"/>
        <rect class="cls-84" x="5.19" y="14.83" width="33.91" height=".29"/>
        <rect class="cls-66" x="5.19" y="15.12" width="33.91" height=".29"/>
        <rect class="cls-67" x="5.19" y="15.41" width="33.91" height=".29"/>
        <rect class="cls-90" x="5.19" y="15.71" width="33.91" height=".29"/>
        <rect class="cls-72" x="5.19" y="16" width="33.91" height=".29"/>
        <rect class="cls-97" x="5.19" y="16.29" width="33.91" height=".29"/>
        <rect class="cls-97" x="5.19" y="16.59" width="33.91" height=".29"/>
        <rect class="cls-9" x="5.19" y="16.88" width="33.91" height=".29"/>
        <rect class="cls-99" x="5.19" y="17.17" width="33.91" height=".29"/>
        <rect class="cls-80" x="5.19" y="17.47" width="33.91" height=".29"/>
        <rect class="cls-12" x="5.19" y="17.76" width="33.91" height=".29"/>
        <rect class="cls-57" x="5.19" y="18.05" width="33.91" height=".29"/>
        <rect class="cls-38" x="5.19" y="18.35" width="33.91" height=".29"/>
        <rect class="cls-24" x="5.19" y="18.64" width="33.91" height=".29"/>
        <rect class="cls-138" x="5.19" y="18.93" width="33.91" height=".29"/>
        <rect class="cls-85" x="5.19" y="19.23" width="33.91" height=".29"/>
        <rect class="cls-69" x="5.19" y="19.52" width="33.91" height=".29"/>
        <rect class="cls-92" x="5.19" y="19.81" width="33.91" height=".29"/>
        <rect class="cls-77" x="5.19" y="20.11" width="33.91" height=".29"/>
        <rect class="cls-48" x="5.19" y="20.4" width="33.91" height=".29"/>
        <rect class="cls-22" x="5.19" y="20.69" width="33.91" height=".29"/>
        <rect class="cls-6" x="5.19" y="20.99" width="33.91" height=".29"/>
        <rect class="cls-43" x="5.19" y="21.28" width="33.91" height=".29"/>
        <rect class="cls-113" x="5.19" y="21.57" width="33.91" height=".29"/>
        <rect class="cls-127" x="5.19" y="21.87" width="33.91" height=".29"/>
        <rect class="cls-107" x="5.19" y="22.16" width="33.91" height=".29"/>
        <rect class="cls-63" x="5.19" y="22.45" width="33.91" height=".29"/>
        <rect class="cls-51" x="5.19" y="22.75" width="33.91" height=".29"/>
        <rect class="cls-125" x="5.19" y="23.04" width="33.91" height=".29"/>
        <rect class="cls-34" x="5.19" y="23.33" width="33.91" height=".29"/>
        <rect class="cls-65" x="5.19" y="23.63" width="33.91" height=".29"/>
        <rect class="cls-40" x="5.19" y="23.92" width="33.91" height=".29"/>
        <rect class="cls-106" x="5.19" y="24.21" width="33.91" height=".29"/>
        <rect class="cls-94" x="5.19" y="24.51" width="33.91" height=".29"/>
        <rect class="cls-98" x="5.19" y="24.8" width="33.91" height=".29"/>
        <rect class="cls-29" x="5.19" y="25.09" width="33.91" height=".29"/>
        <rect class="cls-83" x="5.19" y="25.38" width="33.91" height=".29"/>
        <rect class="cls-62" x="5.19" y="25.68" width="33.91" height=".29"/>
        <rect class="cls-82" x="5.19" y="25.97" width="33.91" height=".29"/>
        <rect class="cls-21" x="5.19" y="26.26" width="33.91" height=".29"/>
        <rect class="cls-132" x="5.19" y="26.56" width="33.91" height=".29"/>
        <rect class="cls-111" x="5.19" y="26.85" width="33.91" height=".29"/>
        <rect class="cls-87" x="5.19" y="27.14" width="33.91" height=".29"/>
        <rect class="cls-55" x="5.19" y="27.44" width="33.91" height=".29"/>
        <rect class="cls-1" x="5.19" y="27.73" width="33.91" height=".29"/>
        <rect class="cls-105" x="5.19" y="28.02" width="33.91" height=".29"/>
        <rect class="cls-15" x="5.19" y="28.32" width="33.91" height=".29"/>
        <rect class="cls-8" x="5.19" y="28.61" width="33.91" height=".29"/>
        <rect class="cls-44" x="5.19" y="28.9" width="33.91" height=".29"/>
        <rect class="cls-32" x="5.19" y="29.2" width="33.91" height=".29"/>
        <rect class="cls-124" x="5.19" y="29.49" width="33.91" height=".29"/>
        <rect class="cls-93" x="5.19" y="29.78" width="33.91" height=".29"/>
        <rect class="cls-68" x="5.19" y="30.08" width="33.91" height=".29"/>
        <rect class="cls-140" x="5.19" y="30.37" width="33.91" height=".29"/>
        <rect class="cls-130" x="5.19" y="30.66" width="33.91" height=".29"/>
        <rect class="cls-126" x="5.19" y="30.96" width="33.91" height=".29"/>
        <rect class="cls-13" x="5.19" y="31.25" width="33.91" height=".29"/>
        <rect class="cls-141" x="5.19" y="31.54" width="33.91" height=".29"/>
        <rect class="cls-104" x="5.19" y="31.84" width="33.91" height=".29"/>
        <rect class="cls-109" x="5.19" y="32.13" width="33.91" height=".29"/>
        <rect class="cls-78" x="5.19" y="32.42" width="33.91" height=".29"/>
        <rect class="cls-17" x="5.19" y="32.72" width="33.91" height=".29"/>
        <rect class="cls-11" x="5.19" y="33.01" width="33.91" height=".29"/>
        <rect class="cls-64" x="5.19" y="33.3" width="33.91" height=".29"/>
        <rect class="cls-115" x="5.19" y="33.6" width="33.91" height=".29"/>
        <rect class="cls-73" x="5.19" y="33.89" width="33.91" height=".29"/>
        <rect class="cls-79" x="5.19" y="34.18" width="33.91" height=".29"/>
        <rect class="cls-71" x="5.19" y="34.48" width="33.91" height=".29"/>
        <rect class="cls-60" x="5.19" y="34.77" width="33.91" height=".29"/>
        <rect class="cls-128" x="5.19" y="35.06" width="33.91" height=".29"/>
        <rect class="cls-45" x="5.19" y="35.36" width="33.91" height=".29"/>
        <rect class="cls-4" x="5.19" y="35.65" width="33.91" height=".29"/>
        <rect class="cls-103" x="5.19" y="35.94" width="33.91" height=".29"/>
        <rect class="cls-88" x="5.19" y="36.24" width="33.91" height=".29"/>
        <rect class="cls-26" x="5.19" y="36.53" width="33.91" height=".29"/>
        <rect class="cls-118" x="5.19" y="36.82" width="33.91" height=".29"/>
        <rect class="cls-131" x="5.19" y="37.12" width="33.91" height=".29"/>
        <rect class="cls-52" x="5.19" y="37.41" width="33.91" height=".29"/>
        <rect class="cls-36" x="5.19" y="37.7" width="33.91" height=".29"/>
        <rect class="cls-102" x="5.19" y="38" width="33.91" height=".29"/>
        <rect class="cls-120" x="5.19" y="38.29" width="33.91" height=".29"/>
        <rect class="cls-91" x="5.19" y="38.58" width="33.91" height=".29"/>
        <rect class="cls-54" x="5.19" y="38.88" width="33.91" height=".29"/>
        <rect class="cls-5" x="5.19" y="39.17" width="33.91" height=".29"/>
        <rect class="cls-61" x="5.19" y="39.46" width="33.91" height=".29"/>
        <rect class="cls-70" x="5.19" y="39.76" width="33.91" height=".29"/>
        <rect class="cls-137" x="5.19" y="40.05" width="33.91" height=".29"/>
        <rect class="cls-30" x="5.19" y="40.34" width="33.91" height=".29"/>
        <rect class="cls-18" x="5.19" y="40.64" width="33.91" height=".29"/>
        <rect class="cls-76" x="5.19" y="40.93" width="33.91" height=".29"/>
        <rect class="cls-121" x="5.19" y="41.22" width="33.91" height=".29"/>
        <rect class="cls-75" x="5.19" y="41.52" width="33.91" height=".29"/>
        <rect class="cls-95" x="5.19" y="41.81" width="33.91" height=".29"/>
        <rect class="cls-81" x="5.19" y="42.1" width="33.91" height=".29"/>
        <rect class="cls-16" x="5.19" y="42.4" width="33.91" height=".29"/>
        <rect class="cls-19" x="5.19" y="42.69" width="33.91" height=".29"/>
        <rect class="cls-58" x="5.19" y="42.98" width="33.91" height=".29"/>
        <rect class="cls-122" x="5.19" y="43.28" width="33.91" height=".29"/>
        <rect class="cls-139" x="5.19" y="43.57" width="33.91" height=".29"/>
        <rect class="cls-27" x="5.19" y="43.86" width="33.91" height=".29"/>
        <rect class="cls-31" x="5.19" y="44.16" width="33.91" height=".29"/>
        <rect class="cls-47" x="5.19" y="44.45" width="33.91" height=".29"/>
        <rect class="cls-41" x="5.19" y="44.74" width="33.91" height=".29"/>
        <rect class="cls-116" x="5.19" y="45.04" width="33.91" height=".29"/>
        <rect class="cls-135" x="5.19" y="45.33" width="33.91" height=".18"/>
      </g>
      <path d="m26.93,46c-1.83,0-3.32-1.49-3.32-3.32v-5.88c-1,.09-1.93.09-2.93,0v5.88c0,1.83-1.49,3.32-3.32,3.32s-3.32-1.49-3.32-3.32v-7.81c-.96-.5-1.87-1.09-2.72-1.76v4.36c0,1.83-1.49,3.32-3.32,3.32s-3.32-1.49-3.32-3.32v-16.96c0-.11,0-.22.02-.34-.01-.29-.02-.53-.02-.75C4.7,9.8,12.52,1.98,22.14,1.98s17.45,7.83,17.45,17.45c0,.22,0,.46-.02.75.01.12.02.23.02.34v16.96c0,1.83-1.49,3.32-3.32,3.32s-3.32-1.49-3.32-3.32v-4.36c-.85.67-1.76,1.26-2.72,1.76v7.81c0,1.83-1.49,3.32-3.32,3.32Zm-2.34-10.28v6.97c0,1.29,1.05,2.34,2.34,2.34s2.34-1.05,2.34-2.34v-8.41l.27-.14c1.3-.65,2.51-1.48,3.59-2.44l.82-.73v6.5c0,1.29,1.05,2.34,2.34,2.34s2.34-1.05,2.34-2.34v-16.96c0-.08,0-.17-.02-.27v-.04s0-.04,0-.04c.01-.29.02-.53.02-.74,0-9.08-7.39-16.47-16.47-16.47S5.68,10.34,5.68,19.42c0,.22,0,.45.02.75v.04s0,.04,0,.04c-.01.1-.02.18-.02.27v16.96c0,1.29,1.05,2.34,2.34,2.34s2.34-1.05,2.34-2.34v-6.5l.82.73c1.08.97,2.29,1.79,3.59,2.44l.27.14v8.41c0,1.29,1.05,2.34,2.34,2.34s2.34-1.05,2.34-2.34v-6.97l.55.06c.65.07,1.29.11,1.9.11s1.25-.04,1.9-.11l.55-.06Z"/>
    </g>
    <path class="cls-10" d="m19.46,15.56l1.33-1.33c.59-.59.59-1.56,0-2.15-.59-.59-1.56-.59-2.15,0l-1.33,1.33-1.33-1.33c-.59-.59-1.56-.59-2.15,0-.59.59-.59,1.56,0,2.15l1.33,1.33-1.33,1.33c-.59.59-.59,1.56,0,2.15.59.59,1.56.59,2.15,0l1.33-1.33,1.33,1.33c.59.59,1.56.59,2.15,0,.59-.59.59-1.56,0-2.15l-1.33-1.33Z"/>
    <path class="cls-10" d="m30.11,15.56l1.33-1.33c.59-.59.59-1.56,0-2.15-.59-.59-1.56-.59-2.15,0l-1.33,1.33-1.33-1.33c-.59-.59-1.56-.59-2.15,0-.59.59-.59,1.56,0,2.15l1.33,1.33-1.33,1.33c-.59.59-.59,1.56,0,2.15.59.59,1.56.59,2.15,0l1.33-1.33,1.33,1.33c.59.59,1.56.59,2.15,0,.59-.59.59-1.56,0-2.15l-1.33-1.33Z"/>
  </g>
</svg>