<?xml version="1.0"?>
<svg xmlns="http://www.w3.org/2000/svg" xmlns:xlink="http://www.w3.org/1999/xlink" xmlns:svgjs="http://svgjs.com/svgjs" version="1.1" width="512" height="512" x="0" y="0" viewBox="0 0 512 512" style="enable-background:new 0 0 512 512" xml:space="preserve" class=""><g><g xmlns="http://www.w3.org/2000/svg"><g><path d="m451.891 163.426 28.312 21.819-11.11 38.954 22.824 33.463-22.604 33.612 11.367 38.88-31.917 24.938-1.324 40.483-38.104 13.76-13.761 38.105-40.482 1.323-24.937 31.917-38.88-11.367-33.613 22.605-33.463-22.825-38.954 11.11-21.937-28.465-111.624-89.47.589-41.677-27.459-29.423 17.37-36.306-17.121-36.425 27.66-29.233-5.076-39.926 35.346-19.247 7.5-39.538 39.538-7.499 19.247-35.347 39.926 5.077 29.233-27.66 36.425 17.12 36.306-17.369 29.422 27.459 39.89 1.198z" fill="#c9c9c9" data-original="#ffee80" style="" class=""/><circle cx="256" cy="256" fill="#0083c0" r="164.781" data-original="#ff7d97" style="" class=""/><path d="m11.515 404.805 97.707 97.707 160.739-160.74 71.811-71.81 160.74-160.74-97.708-97.707z" fill="#81cff4" data-original="#80b6ff" style="" class=""/></g><g><circle cx="305.867" cy="305.867" r="10" fill="#06354c" data-original="#000000" style="" class=""/><path d="m509.062 101.588-98.65-98.65c-1.88-1.881-4.432-2.938-7.092-2.938s-5.211 1.057-7.092 2.938l-40.361 40.361-31.193-.937-26.662-24.88c-3.017-2.814-7.449-3.494-11.172-1.714l-32.013 15.316-32.119-15.095c-3.734-1.755-8.163-1.042-11.16 1.792l-25.786 24.397-35.217-4.48c-4.106-.527-8.1 1.523-10.075 5.154l-16.974 31.176-34.868 6.614c-4.049.769-7.217 3.936-7.985 7.986l-6.614 34.868-31.176 16.975c-3.629 1.976-5.674 5.974-5.154 10.072l4.472 35.218-24.397 25.787c-2.836 2.998-3.547 7.428-1.791 11.161l15.103 32.119-15.315 32.011c-1.781 3.722-1.1 8.154 1.715 11.171l24.705 26.476-.47 32.961-38.783 38.781c-1.881 1.882-2.938 4.432-2.938 7.093s1.057 5.211 2.938 7.093l98.649 98.649c1.959 1.958 4.526 2.938 7.093 2.938s5.134-.98 7.092-2.938l44.644-44.644 16.883 21.908c2.508 3.255 6.746 4.653 10.696 3.522l34.435-9.822 29.58 20.177c1.704 1.163 3.678 1.745 5.652 1.745 1.952 0 3.905-.569 5.597-1.707l29.712-19.982 34.368 10.049c3.942 1.148 8.189-.216 10.718-3.452l22.05-28.222 35.794-1.17c4.104-.134 7.712-2.756 9.106-6.619l12.162-33.677 33.676-12.162c3.862-1.395 6.484-5.002 6.618-9.106l1.17-35.794 28.222-22.051c3.237-2.529 4.605-6.776 3.452-10.719l-10.048-34.368 19.982-29.712c2.289-3.404 2.274-7.86-.037-11.249l-20.176-29.579 9.821-34.435c1.126-3.95-.269-8.189-3.523-10.696l-21.907-16.883 44.644-44.644c3.916-3.915 3.916-10.266-.001-14.183zm-449.452 212.16-22.792-24.425 14.416-30.133c1.3-2.715 1.31-5.872.029-8.596l-14.216-30.233 22.957-24.266c2.065-2.182 3.043-5.176 2.664-8.156l-4.207-33.13 29.332-15.971c2.641-1.438 4.498-3.985 5.058-6.94l6.226-32.823 32.824-6.226c2.955-.561 5.502-2.417 6.94-5.059l15.969-29.33 33.129 4.215c2.981.381 5.976-.597 8.159-2.664l24.266-22.958 30.233 14.209c2.725 1.28 5.88 1.271 8.595-.03l30.133-14.416 24.425 22.792c1.781 1.662 4.107 2.619 6.542 2.692l16.09.483-23.837 23.837c-29.917-9.545-61.817-11.102-92.66-4.468-33.776 7.263-64.598 24.071-89.133 48.606-24.535 24.53-41.342 55.351-48.604 89.131-6.631 30.844-5.075 62.744 4.465 92.663l-24.541 24.541.233-16.358c.038-2.591-.928-5.093-2.695-6.987zm43.252-17.445c-5.838-23.58-6.251-48.246-1.102-72.197 6.449-29.995 21.378-57.369 43.176-79.162 21.799-21.8 49.174-36.731 79.166-43.181 23.952-5.151 48.616-4.736 72.195 1.104zm365.829-107.267-9.244 32.413c-.816 2.863-.318 5.943 1.36 8.402l18.997 27.85-18.813 27.976c-1.662 2.471-2.14 5.553-1.304 8.412l9.458 32.349-26.557 20.75c-2.342 1.83-3.752 4.605-3.849 7.576l-1.101 33.686-31.709 11.45c-2.805 1.013-5.014 3.222-6.027 6.027l-11.451 31.709-33.686 1.101c-2.971.098-5.746 1.507-7.576 3.849l-20.749 26.556-32.35-9.458c-2.859-.833-5.94-.357-8.412 1.305l-27.975 18.813-27.85-18.997c-2.461-1.679-5.539-2.177-8.403-1.36l-32.412 9.245-14.316-18.577 22.936-22.937c19.613 6.963 39.924 10.366 60.081 10.366 46.822 0 92.795-18.303 127.149-52.657 49.144-49.144 65.435-122.059 42.295-187.233l22.933-22.933zm-138.691 77.295c-3.917 3.917-3.917 10.268 0 14.185 3.918 3.917 10.269 3.917 14.185 0l67.041-66.907c15.974 55.454.826 115.742-40.524 157.092-41.35 41.351-101.638 56.5-157.092 40.525l66.832-66.832c3.917-3.917 3.918-10.268 0-14.185-3.917-3.914-10.267-3.916-14.185 0l-157.577 157.577-84.465-84.465 379.105-379.106 84.465 84.465z" fill="#06354c" data-original="#000000" style="" class=""/><path d="m416.645 132.475-54.953-24.84c-.089-.04-.178-.079-.268-.117-4.26-1.779-9.119-.815-12.379 2.451-3.261 3.267-4.214 8.127-2.429 12.384.031.074.064.15.097.223l24.7 55.09c1.669 3.723 5.327 5.93 9.158 5.93 1.371 0 2.765-.283 4.098-.881 5.055-2.267 7.315-8.201 5.049-13.256l-15.263-34.041 33.926 15.336c5.048 2.286 10.99.039 13.271-5.008 2.283-5.047.04-10.99-5.007-13.271z" fill="#06354c" data-original="#000000" style="" class=""/><path d="m323.765 149.297c-3.955-3.882-10.305-3.82-14.184.137-3.879 3.954-3.818 10.304.137 14.183l18.196 17.848-37.268-6.821c-4.317-.786-8.648 1.319-10.687 5.206-2.04 3.888-1.314 8.649 1.79 11.753l40.389 40.388c1.959 1.958 4.525 2.938 7.092 2.938s5.134-.98 7.093-2.938c3.917-3.917 3.917-10.268 0-14.185l-17.637-17.636 35.215 6.445c4.817.868 9.524-1.332 11.701-5.489 2.244-4.286 1.346-9.404-2.357-13.106z" fill="#06354c" data-original="#000000" style="" class=""/><path d="m387.721 71.293c-3.917 3.917-3.917 10.268 0 14.185l40.431 40.43c1.941 1.941 4.51 2.938 7.095 2.938 2.015 0 4.041-.605 5.788-1.84.88-.623 1.244-.88 15.51-15.307 3.895-3.939 3.86-10.29-.079-14.184-3.939-3.896-10.29-3.858-14.184.079-2.351 2.377-4.82 4.866-7.008 7.066l-33.367-33.367c-3.918-3.917-10.269-3.917-14.186 0z" fill="#06354c" data-original="#000000" style="" class=""/><path d="m185.694 287.504c-3.917-3.916-10.268-3.916-14.185 0-3.917 3.917-3.917 10.268 0 14.185l40.464 40.465c1.959 1.958 4.526 2.938 7.093 2.938s5.134-.979 7.093-2.938c3.917-3.917 3.917-10.268 0-14.185z" fill="#06354c" data-original="#000000" style="" class=""/><path d="m296.276 257.852c1.959 1.958 4.525 2.938 7.092 2.938s5.134-.979 7.093-2.938c3.917-3.917 3.917-10.268 0-14.185l-40.465-40.464c-3.917-3.916-10.268-3.916-14.185 0-3.917 3.917-3.917 10.268 0 14.185z" fill="#06354c" data-original="#000000" style="" class=""/><path d="m267.541 246.122c-3.917-3.916-10.268-3.916-14.185 0l-12.105 12.105c-3.917 3.917-3.917 10.268 0 14.185 3.917 3.916 10.268 3.916 14.185 0l3.685-3.685c.588 1.47.965 2.94 1.115 4.377.42 4.023-.926 7.528-4.113 10.715-7.245 7.247-19.035 7.247-26.28 0-3.51-3.51-5.442-8.176-5.442-13.139 0-4.964 1.933-9.631 5.443-13.14 2.633-2.634 5.947-4.398 9.583-5.102 5.438-1.053 8.993-6.316 7.939-11.754-1.053-5.438-6.316-8.985-11.755-7.94-7.579 1.468-14.479 5.138-19.953 10.611-7.298 7.299-11.318 17.003-11.318 27.325s4.019 20.026 11.318 27.324c7.535 7.534 17.428 11.301 27.325 11.3 9.895 0 19.792-3.767 27.324-11.3 7.413-7.413 10.923-16.995 9.881-26.982-.92-8.82-5.412-17.664-12.647-24.9z" fill="#06354c" data-original="#000000" style="" class=""/><path d="m194.798 349.958-17.862-1.139c.86-2.473 1.354-5.081 1.438-7.752.216-6.922-2.295-13.364-7.071-18.139-4.776-4.776-11.222-7.289-18.139-7.071-6.661.208-12.938 2.93-17.673 7.666l-10.753 10.753c-.001.001-.003.003-.004.004-.003.003-.006.005-.009.008-3.917 3.917-3.917 10.268 0 14.185l40.465 40.465c1.959 1.958 4.525 2.938 7.092 2.938s5.134-.979 7.093-2.938c3.917-3.917 3.917-10.268 0-14.185l-6.063-6.063 20.211 1.288c.217.014.433.021.648.021 5.248 0 9.661-4.081 10-9.393.351-5.529-3.845-10.295-9.373-10.648zm-45.122-12.252c1.096-1.096 2.595-1.751 4.112-1.799.76-.017 2.225.101 3.33 1.205v.001c1.104 1.104 1.228 2.559 1.204 3.329-.048 1.517-.703 3.017-1.799 4.113-.897.896-2.212 2.22-3.615 3.634-1.345-1.334-5.457-5.433-6.873-6.842z" fill="#06354c" data-original="#000000" style="" class=""/><path d="m108.66 366.36c-10.322 0-20.026 4.02-27.325 11.318-15.067 15.067-15.067 39.583 0 54.65 7.299 7.298 17.003 11.318 27.325 11.318s20.026-4.02 27.325-11.318c15.067-15.067 15.067-39.583 0-54.65-7.299-7.298-17.003-11.318-27.325-11.318zm13.139 51.782c-3.51 3.511-8.176 5.443-13.14 5.443s-9.63-1.933-13.14-5.443c-7.245-7.245-7.245-19.034 0-26.279 3.51-3.511 8.176-5.443 13.14-5.443s9.63 1.933 13.14 5.443c7.246 7.246 7.246 19.034 0 26.279z" fill="#06354c" data-original="#000000" style="" class=""/></g></g></g></svg>
